<?xml version="1.0" encoding="UTF-8"?>
<svg width="700pt" height="700pt" version="1.1" viewBox="0 0 700 700" xmlns="http://www.w3.org/2000/svg" xmlns:xlink="http://www.w3.org/1999/xlink">
 <defs>
  <symbol id="l" overflow="visible">
   <path d="m29.312-1.75c-1.5117 0.78125-3.0898 1.3711-4.7344 1.7656-1.6367 0.40625-3.3398 0.60938-5.1094 0.60938-5.3125 0-9.5273-1.4844-12.641-4.4531-3.1055-2.9688-4.6562-7-4.6562-12.094s1.5508-9.125 4.6562-12.094c3.1133-2.9688 7.3281-4.4531 12.641-4.4531 1.7695 0 3.4727 0.19922 5.1094 0.59375 1.6445 0.39844 3.2227 0.99219 4.7344 1.7812v6.5938c-1.5312-1.0391-3.0391-1.8008-4.5156-2.2812-1.4805-0.48828-3.0391-0.73438-4.6719-0.73438-2.9375 0-5.2461 0.94531-6.9219 2.8281-1.6797 1.875-2.5156 4.4648-2.5156 7.7656 0 3.293 0.83594 5.8828 2.5156 7.7656 1.6758 1.875 3.9844 2.8125 6.9219 2.8125 1.6328 0 3.1914-0.23828 4.6719-0.71875 1.4766-0.48828 2.9844-1.2539 4.5156-2.2969z"/>
  </symbol>
  <symbol id="d" overflow="visible">
   <path d="m21.453-17.406c-0.67969-0.3125-1.3516-0.53906-2.0156-0.6875-0.65625-0.15625-1.3203-0.23438-1.9844-0.23438-1.9688 0-3.4844 0.63281-4.5469 1.8906-1.0547 1.2617-1.5781 3.0703-1.5781 5.4219v11.016h-7.6562v-23.922h7.6562v3.9219c0.97656-1.5625 2.1016-2.7031 3.375-3.4219 1.2812-0.71875 2.8125-1.0781 4.5938-1.0781 0.25 0 0.52344 0.011719 0.82812 0.03125 0.30078 0.023438 0.73438 0.070312 1.2969 0.14062z"/>
  </symbol>
  <symbol id="c" overflow="visible">
   <path d="m27.562-12.031v2.1875h-17.891c0.1875 1.793 0.83203 3.1367 1.9375 4.0312 1.1133 0.89844 2.6719 1.3438 4.6719 1.3438 1.6016 0 3.25-0.23438 4.9375-0.70312 1.6875-0.47656 3.4219-1.2031 5.2031-2.1719v5.8906c-1.8047 0.6875-3.6094 1.2031-5.4219 1.5469-1.8125 0.35156-3.6211 0.53125-5.4219 0.53125-4.3359 0-7.7031-1.0977-10.109-3.2969-2.3984-2.207-3.5938-5.2969-3.5938-9.2656 0-3.9062 1.1758-6.9727 3.5312-9.2031 2.3633-2.2383 5.6094-3.3594 9.7344-3.3594 3.7578 0 6.7695 1.1367 9.0312 3.4062 2.2578 2.2617 3.3906 5.2812 3.3906 9.0625zm-7.8594-2.5312c0-1.457-0.42969-2.6289-1.2812-3.5156-0.84375-0.89453-1.9492-1.3438-3.3125-1.3438-1.4922 0-2.6992 0.41797-3.625 1.25-0.91797 0.83594-1.4922 2.0391-1.7188 3.6094z"/>
  </symbol>
  <symbol id="a" overflow="visible">
   <path d="m14.391-10.766c-1.5938 0-2.793 0.27344-3.5938 0.8125-0.80469 0.54297-1.2031 1.3398-1.2031 2.3906 0 0.96875 0.32031 1.7305 0.96875 2.2812 0.64453 0.54297 1.5469 0.8125 2.7031 0.8125 1.4375 0 2.6445-0.51562 3.625-1.5469 0.98828-1.0312 1.4844-2.3203 1.4844-3.875v-0.875zm11.688-2.8906v13.656h-7.7031v-3.5469c-1.0312 1.4492-2.1875 2.5078-3.4688 3.1719s-2.8398 1-4.6719 1c-2.4805 0-4.4961-0.72266-6.0469-2.1719-1.543-1.4453-2.3125-3.3203-2.3125-5.625 0-2.8125 0.96094-4.8672 2.8906-6.1719 1.9375-1.3125 4.9688-1.9688 9.0938-1.9688h4.5156v-0.60938c0-1.207-0.48047-2.0938-1.4375-2.6562-0.94922-0.5625-2.4375-0.84375-4.4688-0.84375-1.6367 0-3.1562 0.16797-4.5625 0.5-1.4062 0.32422-2.7188 0.8125-3.9375 1.4688v-5.8281c1.6445-0.40625 3.2891-0.70703 4.9375-0.90625 1.6562-0.20703 3.3047-0.3125 4.9531-0.3125 4.3203 0 7.4375 0.85547 9.3438 2.5625 1.9141 1.6992 2.875 4.4609 2.875 8.2812z"/>
  </symbol>
  <symbol id="b" overflow="visible">
   <path d="m12.031-30.719v6.7969h7.875v5.4688h-7.875v10.141c0 1.1172 0.21875 1.8711 0.65625 2.2656 0.4375 0.38672 1.3125 0.57812 2.625 0.57812h3.9375v5.4688h-6.5625c-3.0234 0-5.1641-0.62891-6.4219-1.8906-1.2617-1.2578-1.8906-3.3984-1.8906-6.4219v-10.141h-3.7969v-5.4688h3.7969v-6.7969z"/>
  </symbol>
  <symbol id="i" overflow="visible">
   <path d="m19.953-20.422v-12.812h7.6875v33.234h-7.6875v-3.4531c-1.0547 1.4062-2.2148 2.4375-3.4844 3.0938-1.2734 0.65625-2.7422 0.98438-4.4062 0.98438-2.9492 0-5.3711-1.1719-7.2656-3.5156-1.8867-2.3438-2.8281-5.3594-2.8281-9.0469s0.94141-6.7031 2.8281-9.0469c1.8945-2.3438 4.3164-3.5156 7.2656-3.5156 1.6562 0 3.1172 0.33594 4.3906 1 1.2812 0.65625 2.4453 1.6836 3.5 3.0781zm-5.0469 15.484c1.6445 0 2.8945-0.59766 3.75-1.7969 0.86328-1.1953 1.2969-2.9297 1.2969-5.2031 0-2.2812-0.43359-4.0195-1.2969-5.2188-0.85547-1.1953-2.1055-1.7969-3.75-1.7969-1.625 0-2.8711 0.60156-3.7344 1.7969-0.85547 1.1992-1.2812 2.9375-1.2812 5.2188 0 2.2734 0.42578 4.0078 1.2812 5.2031 0.86328 1.1992 2.1094 1.7969 3.7344 1.7969z"/>
  </symbol>
  <symbol id="h" overflow="visible">
   <path d="m16.406-4.9375c1.6328 0 2.8828-0.59766 3.75-1.7969 0.86328-1.1953 1.2969-2.9297 1.2969-5.2031 0-2.2812-0.43359-4.0195-1.2969-5.2188-0.86719-1.1953-2.1172-1.7969-3.75-1.7969-1.6367 0-2.8906 0.60547-3.7656 1.8125-0.875 1.1992-1.3125 2.9336-1.3125 5.2031 0 2.2617 0.4375 3.9961 1.3125 5.2031 0.875 1.1992 2.1289 1.7969 3.7656 1.7969zm-5.0781-15.484c1.0508-1.3945 2.2188-2.4219 3.5-3.0781 1.2812-0.66406 2.7539-1 4.4219-1 2.9453 0 5.3672 1.1719 7.2656 3.5156 1.8945 2.3438 2.8438 5.3594 2.8438 9.0469s-0.94922 6.7031-2.8438 9.0469c-1.8984 2.3438-4.3203 3.5156-7.2656 3.5156-1.668 0-3.1406-0.33594-4.4219-1s-2.4492-1.6914-3.5-3.0781v3.4531h-7.6562v-33.234h7.6562z"/>
  </symbol>
  <symbol id="g" overflow="visible">
   <path d="m0.53125-23.922h7.6562l6.4219 16.234 5.4688-16.234h7.6562l-10.062 26.188c-1.0117 2.6641-2.1953 4.5234-3.5469 5.5781-1.3438 1.0625-3.1211 1.5938-5.3281 1.5938h-4.4219v-5.0156h2.3906c1.3008 0 2.2422-0.21094 2.8281-0.625 0.59375-0.40625 1.0547-1.1484 1.3906-2.2188l0.20312-0.65625z"/>
  </symbol>
  <symbol id="f" overflow="visible">
   <path d="m3.6719-33.234h7.6562v33.234h-7.6562z"/>
  </symbol>
  <symbol id="e" overflow="visible">
   <path d="m22.359-23.172v5.7969c-1.6367-0.67578-3.2148-1.1875-4.7344-1.5312-1.5234-0.34375-2.9609-0.51562-4.3125-0.51562-1.4609 0-2.543 0.18359-3.25 0.54688-0.69922 0.36719-1.0469 0.92188-1.0469 1.6719 0 0.61719 0.26562 1.0898 0.79688 1.4219 0.53125 0.32422 1.4883 0.5625 2.875 0.71875l1.3438 0.1875c3.9141 0.5 6.5508 1.3242 7.9062 2.4688 1.3516 1.1367 2.0312 2.9219 2.0312 5.3594 0 2.5547-0.94531 4.4688-2.8281 5.75-1.875 1.2812-4.6797 1.9219-8.4062 1.9219-1.5859 0-3.2188-0.125-4.9062-0.375s-3.4219-0.625-5.2031-1.125v-5.8125c1.5195 0.74219 3.082 1.2969 4.6875 1.6719 1.6016 0.36719 3.2344 0.54688 4.8906 0.54688 1.4883 0 2.6094-0.20312 3.3594-0.60938 0.75781-0.41406 1.1406-1.0312 1.1406-1.8438 0-0.6875-0.26172-1.1953-0.78125-1.5312-0.52344-0.33203-1.5586-0.59375-3.1094-0.78125l-1.3438-0.17188c-3.4062-0.42578-5.793-1.2109-7.1562-2.3594-1.3672-1.1562-2.0469-2.9102-2.0469-5.2656 0-2.5312 0.86719-4.4062 2.6094-5.625 1.7383-1.2266 4.3984-1.8438 7.9844-1.8438 1.4062 0 2.8828 0.10938 4.4375 0.32812 1.5508 0.21094 3.2383 0.54297 5.0625 1z"/>
  </symbol>
  <symbol id="k" overflow="visible">
   <path d="m11.328-3.4531v12.547h-7.6562v-33.016h7.6562v3.5c1.0508-1.3945 2.2188-2.4219 3.5-3.0781 1.2812-0.66406 2.7539-1 4.4219-1 2.9453 0 5.3672 1.1719 7.2656 3.5156 1.8945 2.3438 2.8438 5.3594 2.8438 9.0469s-0.94922 6.7031-2.8438 9.0469c-1.8984 2.3438-4.3203 3.5156-7.2656 3.5156-1.668 0-3.1406-0.33594-4.4219-1s-2.4492-1.6914-3.5-3.0781zm5.0781-15.5c-1.6367 0-2.8906 0.60547-3.7656 1.8125-0.875 1.1992-1.3125 2.9336-1.3125 5.2031 0 2.2617 0.4375 3.9961 1.3125 5.2031 0.875 1.1992 2.1289 1.7969 3.7656 1.7969 1.6328 0 2.8828-0.59766 3.75-1.7969 0.86328-1.1953 1.2969-2.9297 1.2969-5.2031 0-2.2812-0.43359-4.0195-1.2969-5.2188-0.86719-1.1953-2.1172-1.7969-3.75-1.7969z"/>
  </symbol>
  <symbol id="j" overflow="visible">
   <path d="m3.6719-33.234h7.6562v18.094l8.7969-8.7812h8.8906l-11.688 10.969 12.594 12.953h-9.2656l-9.3281-9.9688v9.9688h-7.6562z"/>
  </symbol>
 </defs>
 <g>
  <path d="m350 223.12c-25.527 0-50.008-10.141-68.059-28.191-18.051-18.051-28.191-42.531-28.191-68.059s10.141-50.008 28.191-68.059c18.051-18.051 42.531-28.191 68.059-28.191s50.008 10.141 68.059 28.191c18.051 18.051 28.191 42.531 28.191 68.059-0.027344 25.52-10.18 49.984-28.223 68.027-18.043 18.043-42.508 28.195-68.027 28.223zm0-175c-20.887 0-40.918 8.2969-55.684 23.066-14.77 14.766-23.066 34.797-23.066 55.684s8.2969 40.918 23.066 55.684c14.766 14.77 34.797 23.066 55.684 23.066s40.918-8.2969 55.684-23.066c14.77-14.766 23.066-34.797 23.066-55.684-0.023438-20.879-8.3281-40.895-23.09-55.66-14.766-14.762-34.781-23.066-55.66-23.09z"/>
  <path d="m350 188.12c-1.4922 0-2.9609-0.38281-4.2656-1.1094-12.445-6.6836-22.043-17.656-27.008-30.879-4.9688-13.223-4.9688-27.801 0-41.023 4.9648-13.223 14.562-24.195 27.008-30.879 2.6484-1.4844 5.8828-1.4844 8.5312 0 12.445 6.6836 22.043 17.656 27.008 30.879 4.9688 13.223 4.9688 27.801 0 41.023-4.9648 13.223-14.562 24.195-27.008 30.879-1.3047 0.72656-2.7734 1.1094-4.2656 1.1094zm0-85.895c-10.961 7.5859-17.5 20.066-17.5 33.395s6.5391 25.809 17.5 33.395c10.961-7.5859 17.5-20.066 17.5-33.395s-6.5391-25.809-17.5-33.395z"/>
  <path d="m373.01 126.88h-46.023c-4.832 0-8.75-3.918-8.75-8.75s3.918-8.75 8.75-8.75h46.023c4.832 0 8.75 3.918 8.75 8.75s-3.918 8.75-8.75 8.75z"/>
  <path d="m355.32 104.04c-3.1289-0.003906-6.0195-1.6797-7.5781-4.3906-1.5586-2.7148-1.5508-6.0547 0.023437-8.7617l12.168-20.91c1.168-2.0039 3.082-3.4648 5.3281-4.0586 2.2422-0.58984 4.6289-0.26953 6.6367 0.89844 4.1758 2.4297 5.5898 7.7852 3.1602 11.965l-12.168 20.91v-0.003906c-1.5664 2.6992-4.4531 4.3555-7.5703 4.3516z"/>
  <path d="m344.68 104.04c-3.1172 0.003906-6.0039-1.6523-7.5703-4.3516l-12.168-20.906c-2.4297-4.1797-1.0156-9.5352 3.1602-11.965 4.1797-2.4297 9.5352-1.0156 11.965 3.1602l12.168 20.91c1.5742 2.707 1.582 6.0469 0.023437 8.7617-1.5586 2.7109-4.4492 4.3867-7.5781 4.3906z"/>
  <path d="m402.5 144.38h-26.25c-4.832 0-8.75-3.918-8.75-8.75s3.918-8.75 8.75-8.75h26.25c4.832 0 8.75 3.918 8.75 8.75s-3.918 8.75-8.75 8.75z"/>
  <path d="m323.75 144.38h-26.25c-4.832 0-8.75-3.918-8.75-8.75s3.918-8.75 8.75-8.75h26.25c4.832 0 8.75 3.918 8.75 8.75s-3.918 8.75-8.75 8.75z"/>
  <path d="m292.66 201.71c-3.5391 0-6.7305-2.1328-8.082-5.4023-1.3555-3.2695-0.60547-7.0312 1.8945-9.5352l123.42-123.42c3.418-3.4062 8.9531-3.4023 12.363 0.011719 3.4141 3.4102 3.418 8.9453 0.011719 12.363l-123.42 123.42c-1.6406 1.6445-3.8672 2.5664-6.1875 2.5625z"/>
  <path d="m393.75 188.12c-2.3203 0.003906-4.5469-0.92188-6.1875-2.5625l-22.414-22.414h0.003906c-3.418-3.418-3.418-8.957 0-12.375 3.4141-3.4141 8.9531-3.4141 12.371 0l22.414 22.414c2.5 2.5039 3.25 6.2656 1.8945 9.5352-1.3555 3.2695-4.543 5.4023-8.082 5.4023z"/>
  <path d="m328.66 123.04c-2.3203 0-4.5469-0.92187-6.1875-2.5664l-22.414-22.41c-3.3633-3.4258-3.3359-8.9219 0.058594-12.316 3.3945-3.3945 8.8906-3.4219 12.316-0.058594l22.414 22.414h-0.003906c2.5039 2.5039 3.25 6.2656 1.8984 9.5352-1.3555 3.2695-4.543 5.4023-8.082 5.4023z"/>
  <path d="m621.25 529.38h-542.5c-4.832 0-8.75-3.918-8.75-8.75s3.918-8.75 8.75-8.75h542.5c4.832 0 8.75 3.918 8.75 8.75s-3.918 8.75-8.75 8.75z"/>
  <path d="m551.29 529.38h-402.57c-2.3203 0-4.5469-0.92188-6.1875-2.5625s-2.5625-3.8672-2.5625-6.1875v-201.25c0-4.832 3.918-8.75 8.75-8.75 4.832 0 8.75 3.918 8.75 8.75v192.5h385.07v-192.5c0-4.832 3.918-8.75 8.75-8.75 4.832 0 8.75 3.918 8.75 8.75v201.25c0 2.3203-0.92188 4.5469-2.5625 6.1875s-3.8672 2.5625-6.1875 2.5625z"/>
  <path d="m385 529.38h-70c-2.3203 0-4.5469-0.92188-6.1875-2.5625s-2.5625-3.8672-2.5625-6.1875v-148.75c0-2.3203 0.92188-4.5469 2.5625-6.1875s3.8672-2.5625 6.1875-2.5625h70c2.3203 0 4.5469 0.92188 6.1875 2.5625s2.5625 3.8672 2.5625 6.1875v148.75c0 2.3203-0.92188 4.5469-2.5625 6.1875s-3.8672 2.5625-6.1875 2.5625zm-61.25-17.5h52.5v-131.25h-52.5z"/>
  <path d="m78.75 529.38c-2.3203 0-4.5469-0.92188-6.1875-2.5625s-2.5625-3.8672-2.5625-6.1875v-26.25c-0.003906-9.3281 4.9453-17.957 13-22.664 8.0547-4.707 18-4.7852 26.129-0.20313 4.0938-6.4258 10.785-10.754 18.324-11.855 7.5391-1.1055 15.188 1.125 20.953 6.1094 5.7695 4.9805 9.082 12.227 9.0859 19.848v8.7656c0 4.832-3.918 8.75-8.75 8.75-4.832 0-8.75-3.918-8.75-8.75v-8.7656c0-4.8281-3.9141-8.7422-8.7422-8.7422s-8.7422 3.9141-8.7422 8.7422v8.7656c0 4.832-3.918 8.75-8.75 8.75-4.832 0-8.75-3.918-8.75-8.75 0-4.8359-3.918-8.7539-8.7539-8.7539-4.8359 0-8.7539 3.918-8.7539 8.7539v26.25c0 2.3203-0.92188 4.5469-2.5625 6.1875s-3.8672 2.5625-6.1875 2.5625z"/>
  <path d="m621.25 529.38c-2.3203 0-4.5469-0.92188-6.1875-2.5625s-2.5625-3.8672-2.5625-6.1875v-26.25c0-5.2539-1.4883-8.75-8.7422-8.75-4.8359 0-8.7578 3.9141-8.7656 8.75 0 4.832-3.918 8.75-8.75 8.75-4.832 0-8.75-3.918-8.75-8.75v-8.7656c0-4.8281-3.9141-8.7422-8.7422-8.7422s-8.7422 3.9141-8.7422 8.7422v8.7656c0 4.832-3.918 8.75-8.75 8.75-4.832 0-8.75-3.918-8.75-8.75v-8.7656c0.003907-7.6211 3.3164-14.867 9.0859-19.848 5.7656-4.9844 13.414-7.2148 20.953-6.1094 7.5391 1.1016 14.23 5.4297 18.324 11.855 3.9336-2.2227 8.3711-3.3867 12.887-3.3828 7.1016-0.49609 14.07 2.1133 19.102 7.1484 5.0312 5.0312 7.6367 12 7.1406 19.102v26.25c0 2.3203-0.92188 4.5469-2.5625 6.1875s-3.8672 2.5625-6.1875 2.5625z"/>
  <path d="m122.46 328.14c-2.8125 0-5.4492-1.3555-7.0938-3.6367s-2.0898-5.2109-1.2031-7.8789l26.258-78.801c1.5312-4.582 6.4844-7.0586 11.066-5.5312 4.582 1.5312 7.0586 6.4844 5.5273 11.066l-26.258 78.801c-1.1875 3.5742-4.5312 5.9805-8.2969 5.9805z"/>
  <path d="m577.54 328.14c-3.7656 0-7.1094-2.4062-8.2969-5.9805l-26.258-78.801c-1.5312-4.582 0.94531-9.5352 5.5273-11.066 4.582-1.5273 9.5352 0.94922 11.066 5.5312l26.258 78.801c0.88672 2.668 0.44141 5.5977-1.2031 7.8789s-4.2812 3.6367-7.0938 3.6367z"/>
  <path d="m551.29 249.34h-402.57c-4.832 0-8.75-3.918-8.75-8.75 0-4.832 3.918-8.75 8.75-8.75h402.57c4.832 0 8.75 3.918 8.75 8.75 0 4.832-3.918 8.75-8.75 8.75z"/>
  <path d="m577.54 328.14h-455.09c-4.832 0-8.75-3.9141-8.75-8.75 0-4.832 3.918-8.75 8.75-8.75h455.09c4.832 0 8.75 3.918 8.75 8.75 0 4.8359-3.918 8.75-8.75 8.75z"/>
  <path d="m288.76 468.18h-113.76c-2.3203 0-4.5469-0.91797-6.1875-2.5625-1.6406-1.6406-2.5625-3.8672-2.5625-6.1875v-87.551c0-2.3203 0.92188-4.5469 2.5625-6.1875s3.8672-2.5625 6.1875-2.5625h113.76c2.3203 0 4.5469 0.92188 6.1914 2.5625 1.6406 1.6406 2.5625 3.8672 2.5586 6.1875v87.551c0.003907 2.3203-0.91797 4.5469-2.5586 6.1875-1.6445 1.6445-3.8711 2.5625-6.1914 2.5625zm-105.01-17.5h96.258v-70.051h-96.258z"/>
  <path d="m525.01 468.18h-113.76c-2.3203 0-4.5469-0.91797-6.1875-2.5625-1.6406-1.6406-2.5625-3.8672-2.5625-6.1875v-87.551c0-2.3203 0.92188-4.5469 2.5625-6.1875s3.8672-2.5625 6.1875-2.5625h113.76c2.3203 0 4.5469 0.92188 6.1914 2.5625 1.6406 1.6406 2.5625 3.8672 2.5586 6.1875v87.551c0.003907 2.3203-0.91797 4.5469-2.5586 6.1875-1.6445 1.6445-3.8711 2.5625-6.1914 2.5625zm-105.01-17.5h96.258v-70.051h-96.258z"/>
  <path d="m358.75 415.62h-17.5c-4.832 0-8.75-3.918-8.75-8.75s3.918-8.75 8.75-8.75h17.5c4.832 0 8.75 3.918 8.75 8.75s-3.918 8.75-8.75 8.75z"/>
  <path d="m385 354.41h-68.539c-4.832 0-8.75-3.918-8.75-8.75 0-4.832 3.918-8.75 8.75-8.75h68.539c4.832 0 8.75 3.918 8.75 8.75 0 4.832-3.918 8.75-8.75 8.75z"/>
  <path d="m183.75 441.89c-4.832 0-8.75-3.9141-8.75-8.75 0-4.832 3.918-8.75 8.75-8.75 4.6406-0.003906 9.0859-1.8516 12.367-5.1289 3.2812-3.2812 5.125-7.7305 5.1328-12.371 0-4.832 3.918-8.75 8.75-8.75s8.75 3.918 8.75 8.75c-0.007812 9.2812-3.6992 18.18-10.262 24.742-6.5625 6.5586-15.457 10.25-24.738 10.258z"/>
  <path d="m210 415.64c-2.3203 0.003906-4.5469-0.91797-6.1875-2.5586s-2.5625-3.8672-2.5625-6.1914v-35.016c0-4.832 3.918-8.75 8.75-8.75s8.75 3.918 8.75 8.75v35.016c0 2.3242-0.92188 4.5508-2.5625 6.1914s-3.8672 2.5625-6.1875 2.5586z"/>
  <path d="m201.25 468.12c-2.3203 0-4.5469-0.92188-6.1875-2.5625s-2.5625-3.8672-2.5625-6.1875v-33c0-4.832 3.918-8.75 8.75-8.75s8.75 3.918 8.75 8.75v33c0 2.3203-0.92188 4.5469-2.5625 6.1875s-3.8672 2.5625-6.1875 2.5625z"/>
  <path d="m183.75 441.89h-8.75c-4.832 0-8.75-3.9141-8.75-8.75 0-4.832 3.918-8.75 8.75-8.75h8.75c4.832 0 8.75 3.918 8.75 8.75 0 4.8359-3.918 8.75-8.75 8.75z"/>
  <path d="m280 441.89c-9.2812-0.007813-18.176-3.6992-24.738-10.258-6.5625-6.5625-10.254-15.461-10.262-24.742 0-4.832 3.918-8.75 8.75-8.75s8.75 3.918 8.75 8.75c0.007812 4.6406 1.8516 9.0898 5.1328 12.371 3.2812 3.2773 7.7266 5.125 12.367 5.1289 4.832 0 8.75 3.918 8.75 8.75 0 4.8359-3.918 8.75-8.75 8.75z"/>
  <path d="m253.75 415.64c-2.3203 0.003906-4.5469-0.91797-6.1875-2.5586s-2.5625-3.8672-2.5625-6.1914v-35.016c0-4.832 3.918-8.75 8.75-8.75s8.75 3.918 8.75 8.75v35.016c0 2.3242-0.92188 4.5508-2.5625 6.1914s-3.8672 2.5625-6.1875 2.5586z"/>
  <path d="m262.5 468.12c-2.3203 0-4.5469-0.92188-6.1875-2.5625s-2.5625-3.8672-2.5625-6.1875v-33c0-4.832 3.918-8.75 8.75-8.75s8.75 3.918 8.75 8.75v33c0 2.3203-0.92188 4.5469-2.5625 6.1875s-3.8672 2.5625-6.1875 2.5625z"/>
  <path d="m288.75 441.89h-8.75c-4.832 0-8.75-3.9141-8.75-8.75 0-4.832 3.918-8.75 8.75-8.75h8.75c4.832 0 8.75 3.918 8.75 8.75 0 4.8359-3.918 8.75-8.75 8.75z"/>
  <path d="m420.01 441.89c-4.832 0-8.75-3.9141-8.75-8.75 0-4.832 3.918-8.75 8.75-8.75 4.6406-0.003906 9.0898-1.8516 12.367-5.1289 3.2812-3.2812 5.1289-7.7305 5.1328-12.371 0-4.832 3.918-8.75 8.75-8.75 4.832 0 8.75 3.918 8.75 8.75-0.007812 9.2812-3.6992 18.18-10.262 24.742-6.5625 6.5586-15.457 10.25-24.738 10.258z"/>
  <path d="m446.26 415.64c-2.3203 0.003906-4.5469-0.91797-6.1875-2.5586-1.6406-1.6406-2.5625-3.8672-2.5625-6.1914v-35.016c0-4.832 3.918-8.75 8.75-8.75 4.832 0 8.75 3.918 8.75 8.75v35.016c0.003907 2.3242-0.91797 4.5508-2.5586 6.1914-1.6445 1.6406-3.8711 2.5625-6.1914 2.5586z"/>
  <path d="m437.51 468.12c-2.3203 0-4.5469-0.92188-6.1875-2.5625-1.6406-1.6406-2.5625-3.8672-2.5625-6.1875v-33c0-4.832 3.918-8.75 8.75-8.75 4.832 0 8.75 3.918 8.75 8.75v33c0.003907 2.3203-0.91797 4.5469-2.5586 6.1875-1.6445 1.6406-3.8711 2.5625-6.1914 2.5625z"/>
  <path d="m420.01 441.89h-8.75c-4.832 0-8.75-3.9141-8.75-8.75 0-4.832 3.918-8.75 8.75-8.75h8.75c4.832 0 8.75 3.918 8.75 8.75 0 4.8359-3.918 8.75-8.75 8.75z"/>
  <path d="m516.26 441.89c-9.2773-0.007813-18.176-3.6992-24.738-10.258-6.5625-6.5625-10.25-15.461-10.262-24.742 0-4.832 3.918-8.75 8.75-8.75 4.832 0 8.75 3.918 8.75 8.75 0.007813 4.6406 1.8516 9.0898 5.1328 12.371 3.2812 3.2773 7.7305 5.125 12.367 5.1289 4.832 0 8.75 3.918 8.75 8.75 0 4.8359-3.918 8.75-8.75 8.75z"/>
  <path d="m490.01 415.64c-2.3203 0.003906-4.5469-0.91797-6.1875-2.5586-1.6406-1.6406-2.5625-3.8672-2.5625-6.1914v-35.016c0-4.832 3.918-8.75 8.75-8.75 4.832 0 8.75 3.918 8.75 8.75v35.016c0.003907 2.3242-0.91797 4.5508-2.5586 6.1914-1.6445 1.6406-3.8711 2.5625-6.1914 2.5586z"/>
  <path d="m498.76 468.12c-2.3203 0-4.5469-0.92188-6.1875-2.5625-1.6406-1.6406-2.5625-3.8672-2.5625-6.1875v-33c0-4.832 3.918-8.75 8.75-8.75 4.832 0 8.75 3.918 8.75 8.75v33c0.003907 2.3203-0.91797 4.5469-2.5586 6.1875-1.6445 1.6406-3.8711 2.5625-6.1914 2.5625z"/>
  <path d="m525.01 441.89h-8.75c-4.832 0-8.75-3.9141-8.75-8.75 0-4.832 3.918-8.75 8.75-8.75h8.75c4.832 0 8.75 3.918 8.75 8.75 0 4.8359-3.918 8.75-8.75 8.75z"/>
  <path d="m560 275.64h-420c-4.832 0-8.75-3.9141-8.75-8.75 0-4.832 3.918-8.75 8.75-8.75h420c4.832 0 8.75 3.918 8.75 8.75 0 4.8359-3.918 8.75-8.75 8.75z"/>
  <path d="m568.75 301.91h-437.5c-4.832 0-8.75-3.918-8.75-8.75 0-4.832 3.918-8.75 8.75-8.75h437.5c4.832 0 8.75 3.918 8.75 8.75 0 4.832-3.918 8.75-8.75 8.75z"/>
  <path d="m350 249.38c-2.3203 0-4.5469-0.92188-6.1875-2.5625s-2.5625-3.8672-2.5625-6.1875v-26.234c0-4.832 3.918-8.75 8.75-8.75s8.75 3.918 8.75 8.75v26.234c0 2.3203-0.92188 4.5469-2.5625 6.1875s-3.8672 2.5625-6.1875 2.5625z"/>
  <use x="70" y="691.25" xlink:href="#l"/>
  <use x="102.109375" y="691.25" xlink:href="#d"/>
  <use x="123.683594" y="691.25" xlink:href="#c"/>
  <use x="153.355469" y="691.25" xlink:href="#a"/>
  <use x="182.878906" y="691.25" xlink:href="#b"/>
  <use x="203.792969" y="691.25" xlink:href="#c"/>
  <use x="233.464844" y="691.25" xlink:href="#i"/>
  <use x="280.011719" y="691.25" xlink:href="#h"/>
  <use x="311.328125" y="691.25" xlink:href="#g"/>
  <use x="355.078125" y="691.25" xlink:href="#f"/>
  <use x="370.078125" y="691.25" xlink:href="#a"/>
  <use x="399.597656" y="691.25" xlink:href="#e"/>
  <use x="425.640625" y="691.25" xlink:href="#b"/>
  <use x="446.554688" y="691.25" xlink:href="#e"/>
  <use x="472.59375" y="691.25" xlink:href="#k"/>
  <use x="503.910156" y="691.25" xlink:href="#a"/>
  <use x="533.433594" y="691.25" xlink:href="#d"/>
  <use x="555.007812" y="691.25" xlink:href="#j"/>
 </g>
</svg>
