<?xml version="1.0" encoding="UTF-8"?>
<svg width="700pt" height="700pt" version="1.1" viewBox="0 0 700 700" xmlns="http://www.w3.org/2000/svg" xmlns:xlink="http://www.w3.org/1999/xlink">
 <defs>
  <symbol id="v" overflow="visible">
   <path d="m1.8281-0.10938c-0.09375 0.054688-0.19531 0.089844-0.29688 0.10938-0.09375 0.019531-0.19922 0.03125-0.3125 0.03125-0.33594 0-0.60156-0.085938-0.79688-0.26562-0.1875-0.1875-0.28125-0.44141-0.28125-0.76562 0-0.3125 0.09375-0.5625 0.28125-0.75 0.19531-0.1875 0.46094-0.28125 0.79688-0.28125 0.11328 0 0.21875 0.015625 0.3125 0.046875 0.10156 0.023437 0.20312 0.058594 0.29688 0.10938v0.40625c-0.09375-0.0625-0.1875-0.10938-0.28125-0.14062s-0.19531-0.046875-0.29688-0.046875c-0.17969 0-0.32031 0.0625-0.42188 0.1875-0.10547 0.11719-0.15625 0.27344-0.15625 0.46875 0 0.21094 0.050781 0.375 0.15625 0.5 0.10156 0.11719 0.24219 0.17188 0.42188 0.17188 0.10156 0 0.20312-0.015625 0.29688-0.046875s0.1875-0.078125 0.28125-0.14062z"/>
  </symbol>
  <symbol id="f" overflow="visible">
   <path d="m1.3438-1.0938c-0.042969-0.019531-0.085938-0.03125-0.125-0.03125-0.042969-0.007812-0.085938-0.015625-0.125-0.015625-0.125 0-0.22656 0.042969-0.29688 0.125-0.0625 0.074219-0.09375 0.18359-0.09375 0.32812v0.6875h-0.46875v-1.5h0.46875v0.25c0.0625-0.09375 0.12891-0.16016 0.20312-0.20312 0.082031-0.050781 0.17969-0.078125 0.29688-0.078125h0.046875c0.019531 0 0.050781 0.007812 0.09375 0.015625z"/>
  </symbol>
  <symbol id="a" overflow="visible">
   <path d="m1.7188-0.75v0.14062h-1.1094c0.007813 0.10547 0.046875 0.1875 0.10938 0.25 0.070312 0.054687 0.17188 0.078125 0.29688 0.078125 0.10156 0 0.20703-0.015625 0.3125-0.046875 0.10156-0.03125 0.21094-0.070313 0.32812-0.125v0.35938c-0.11719 0.042969-0.23047 0.074219-0.34375 0.09375-0.11719 0.019531-0.23047 0.03125-0.34375 0.03125-0.27344 0-0.48047-0.066406-0.625-0.20312-0.14844-0.13281-0.21875-0.32812-0.21875-0.57812 0-0.23828 0.070312-0.42578 0.21875-0.5625 0.14453-0.14453 0.34766-0.21875 0.60938-0.21875 0.22656 0 0.41016 0.074219 0.54688 0.21875 0.14453 0.13672 0.21875 0.32422 0.21875 0.5625zm-0.48438-0.15625c0-0.09375-0.027344-0.16406-0.078125-0.21875-0.054688-0.0625-0.125-0.09375-0.21875-0.09375-0.085938 0-0.15625 0.027344-0.21875 0.078125-0.0625 0.054687-0.10156 0.13281-0.10938 0.23438z"/>
  </symbol>
  <symbol id="e" overflow="visible">
   <path d="m0.90625-0.67188c-0.10547 0-0.18359 0.015625-0.23438 0.046875-0.054687 0.03125-0.078125 0.085938-0.078125 0.15625 0 0.0625 0.019531 0.10938 0.0625 0.14062 0.039062 0.03125 0.097656 0.046875 0.17188 0.046875 0.09375 0 0.16406-0.03125 0.21875-0.09375 0.0625-0.0625 0.09375-0.14453 0.09375-0.25v-0.046875zm0.71875-0.1875v0.85938h-0.48438v-0.21875c-0.0625 0.09375-0.13672 0.16406-0.21875 0.20312-0.074219 0.03125-0.16797 0.046875-0.28125 0.046875-0.15625 0-0.28125-0.039062-0.375-0.125-0.09375-0.09375-0.14062-0.21094-0.14062-0.35938 0-0.17578 0.054688-0.30078 0.17188-0.375 0.125-0.082031 0.3125-0.125 0.5625-0.125h0.28125v-0.046875c0-0.070312-0.03125-0.125-0.09375-0.15625-0.054687-0.039062-0.14062-0.0625-0.26562-0.0625-0.10547 0-0.20312 0.011719-0.29688 0.03125-0.085937 0.023438-0.16406 0.054688-0.23438 0.09375v-0.35938c0.10156-0.03125 0.20703-0.050781 0.3125-0.0625 0.10156-0.007813 0.20312-0.015625 0.29688-0.015625 0.26953 0 0.46094 0.054688 0.57812 0.15625 0.125 0.10547 0.1875 0.27734 0.1875 0.51562z"/>
  </symbol>
  <symbol id="d" overflow="visible">
   <path d="m0.75-1.9219v0.42188h0.5v0.34375h-0.5v0.64062c0 0.0625 0.007812 0.10938 0.03125 0.14062 0.03125 0.023438 0.085938 0.03125 0.17188 0.03125h0.25v0.34375h-0.40625c-0.1875 0-0.32422-0.035156-0.40625-0.10938-0.074219-0.082031-0.10938-0.21875-0.10938-0.40625v-0.64062h-0.25v-0.34375h0.25v-0.42188z"/>
  </symbol>
  <symbol id="k" overflow="visible">
   <path d="m1.25-1.2812v-0.79688h0.48438v2.0781h-0.48438v-0.21875c-0.074219 0.09375-0.15234 0.16406-0.23438 0.20312-0.074219 0.03125-0.16406 0.046875-0.26562 0.046875-0.17969 0-0.32812-0.070312-0.45312-0.21875-0.11719-0.14453-0.17188-0.33203-0.17188-0.5625 0-0.22656 0.054688-0.41406 0.17188-0.5625 0.125-0.14453 0.27344-0.21875 0.45312-0.21875 0.10156 0 0.19141 0.023438 0.26562 0.0625 0.082031 0.042969 0.16016 0.10547 0.23438 0.1875zm-0.3125 0.96875c0.09375 0 0.16406-0.035156 0.21875-0.10938 0.0625-0.070313 0.09375-0.17969 0.09375-0.32812 0-0.13281-0.03125-0.23828-0.09375-0.3125-0.054688-0.082031-0.125-0.125-0.21875-0.125-0.10547 0-0.18359 0.042969-0.23438 0.125-0.054687 0.074219-0.078125 0.17969-0.078125 0.3125 0 0.14844 0.023438 0.25781 0.078125 0.32812 0.050781 0.074219 0.12891 0.10938 0.23438 0.10938z"/>
  </symbol>
  <symbol id="j" overflow="visible">
   <path d="m1.0312-0.3125c0.09375 0 0.16406-0.035156 0.21875-0.10938 0.0625-0.070313 0.09375-0.17969 0.09375-0.32812 0-0.13281-0.03125-0.23828-0.09375-0.3125-0.054688-0.082031-0.125-0.125-0.21875-0.125-0.10547 0-0.1875 0.042969-0.25 0.125-0.054688 0.074219-0.078125 0.17969-0.078125 0.3125 0 0.14844 0.023437 0.25781 0.078125 0.32812 0.0625 0.074219 0.14453 0.10938 0.25 0.10938zm-0.32812-0.96875c0.070313-0.082031 0.14453-0.14453 0.21875-0.1875 0.082031-0.039062 0.17578-0.0625 0.28125-0.0625 0.1875 0 0.33594 0.074219 0.45312 0.21875 0.11328 0.14844 0.17188 0.33594 0.17188 0.5625 0 0.23047-0.058594 0.41797-0.17188 0.5625-0.11719 0.14844-0.26562 0.21875-0.45312 0.21875-0.10547 0-0.19922-0.015625-0.28125-0.046875-0.074219-0.039062-0.14844-0.10938-0.21875-0.20312v0.21875h-0.46875v-2.0781h0.46875z"/>
  </symbol>
  <symbol id="i" overflow="visible">
   <path d="m0.03125-1.5h0.48438l0.39062 1.0156 0.34375-1.0156h0.48438l-0.625 1.6406c-0.0625 0.16406-0.14062 0.28125-0.23438 0.34375-0.085938 0.070313-0.19531 0.10938-0.32812 0.10938h-0.26562v-0.3125h0.14062c0.082031 0 0.14062-0.015625 0.17188-0.046875 0.039062-0.023437 0.070312-0.070313 0.09375-0.14062l0.015625-0.03125z"/>
  </symbol>
  <symbol id="c" overflow="visible">
   <path d="m1.3906-1.4531v0.375c-0.09375-0.050781-0.19531-0.085937-0.29688-0.10938-0.09375-0.019531-0.18359-0.03125-0.26562-0.03125-0.085937 0-0.15234 0.015625-0.20312 0.046875-0.042969 0.023437-0.0625 0.054687-0.0625 0.09375 0 0.042969 0.015625 0.074219 0.046875 0.09375 0.03125 0.023437 0.09375 0.039063 0.1875 0.046875l0.078125 0.015625c0.25 0.03125 0.41406 0.085937 0.5 0.15625 0.082031 0.0625 0.125 0.17188 0.125 0.32812s-0.0625 0.27734-0.1875 0.35938c-0.11719 0.074219-0.28906 0.10938-0.51562 0.10938-0.10547 0-0.21094-0.011719-0.3125-0.03125-0.10547-0.0078125-0.21094-0.03125-0.3125-0.0625v-0.35938c0.09375 0.054687 0.1875 0.089844 0.28125 0.10938 0.10156 0.023438 0.20703 0.03125 0.3125 0.03125 0.09375 0 0.16016-0.007812 0.20312-0.03125 0.050781-0.03125 0.078125-0.070312 0.078125-0.125 0-0.039062-0.015625-0.070312-0.046875-0.09375-0.03125-0.019531-0.10156-0.035156-0.20312-0.046875l-0.078125-0.015625c-0.21875-0.019531-0.37109-0.066406-0.45312-0.14062-0.085937-0.070313-0.125-0.17969-0.125-0.32812 0-0.15625 0.050781-0.26953 0.15625-0.34375 0.11328-0.082031 0.28125-0.125 0.5-0.125 0.09375 0 0.1875 0.011719 0.28125 0.03125 0.10156 0.011719 0.20703 0.027344 0.3125 0.046875z"/>
  </symbol>
  <symbol id="b" overflow="visible">
   <path d="m1.7344-0.90625v0.90625h-0.48438v-0.6875c0-0.13281-0.007812-0.22266-0.015625-0.26562 0-0.050781-0.007813-0.09375-0.015625-0.125-0.023438-0.03125-0.046875-0.050781-0.078125-0.0625-0.03125-0.019531-0.070313-0.03125-0.10938-0.03125-0.10547 0-0.1875 0.042969-0.25 0.125-0.054688 0.074219-0.078125 0.17969-0.078125 0.3125v0.73438h-0.46875v-2.0781h0.46875v0.79688c0.070313-0.082031 0.14844-0.14453 0.23438-0.1875 0.082031-0.039062 0.17188-0.0625 0.26562-0.0625 0.17578 0 0.30469 0.054688 0.39062 0.15625 0.09375 0.10547 0.14062 0.26172 0.14062 0.46875z"/>
  </symbol>
  <symbol id="h" overflow="visible">
   <path d="m1.7344-0.90625v0.90625h-0.48438v-0.70312c0-0.125-0.007812-0.20703-0.015625-0.25 0-0.050781-0.007813-0.09375-0.015625-0.125-0.023438-0.03125-0.046875-0.050781-0.078125-0.0625-0.03125-0.019531-0.070313-0.03125-0.10938-0.03125-0.10547 0-0.1875 0.042969-0.25 0.125-0.054688 0.074219-0.078125 0.17969-0.078125 0.3125v0.73438h-0.46875v-1.5h0.46875v0.21875c0.070313-0.082031 0.14844-0.14453 0.23438-0.1875 0.082031-0.039062 0.17188-0.0625 0.26562-0.0625 0.17578 0 0.30469 0.054688 0.39062 0.15625 0.09375 0.10547 0.14062 0.26172 0.14062 0.46875z"/>
  </symbol>
  <symbol id="u" overflow="visible">
   <path d="m0.23438-2.0781h0.46875v1.125l0.54688-0.54688h0.5625l-0.73438 0.6875 0.79688 0.8125h-0.57812l-0.59375-0.625v0.625h-0.46875z"/>
  </symbol>
  <symbol id="t" overflow="visible">
   <path d="m0.23438-1.5h0.46875v1.5h-0.46875zm0-0.57812h0.46875v0.39062h-0.46875z"/>
  </symbol>
  <symbol id="s" overflow="visible">
   <path d="m1.25-0.25c-0.074219 0.085938-0.15234 0.14844-0.23438 0.1875-0.074219 0.042969-0.16406 0.0625-0.26562 0.0625-0.17969 0-0.32812-0.070312-0.45312-0.21875-0.11719-0.14453-0.17188-0.32812-0.17188-0.54688s0.054688-0.39844 0.17188-0.54688c0.125-0.14453 0.27344-0.21875 0.45312-0.21875 0.10156 0 0.19141 0.023438 0.26562 0.0625 0.082031 0.042969 0.16016 0.10547 0.23438 0.1875v-0.21875h0.48438v1.3438c0 0.23828-0.078125 0.42188-0.23438 0.54688-0.15625 0.13281-0.375 0.20312-0.65625 0.20312-0.09375 0-0.1875-0.011719-0.28125-0.03125-0.085938-0.011719-0.16797-0.03125-0.25-0.0625v-0.375c0.082031 0.050781 0.16016 0.085938 0.23438 0.10938 0.082031 0.03125 0.16406 0.046875 0.25 0.046875 0.15625 0 0.26953-0.039062 0.34375-0.10938 0.070313-0.074219 0.10938-0.17969 0.10938-0.32812zm-0.3125-0.9375c-0.10547 0-0.18359 0.039062-0.23438 0.10938-0.054687 0.074219-0.078125 0.17969-0.078125 0.3125 0 0.13672 0.023438 0.24219 0.078125 0.3125 0.050781 0.074219 0.12891 0.10938 0.23438 0.10938 0.09375 0 0.16406-0.035156 0.21875-0.10938 0.0625-0.070313 0.09375-0.17578 0.09375-0.3125 0-0.13281-0.03125-0.23828-0.09375-0.3125-0.054688-0.070313-0.125-0.10938-0.21875-0.10938z"/>
  </symbol>
  <symbol id="r" overflow="visible">
   <path d="m1.2188-2.0781v0.3125h-0.26562c-0.074219 0-0.125 0.015625-0.15625 0.046875-0.023437 0.023438-0.03125 0.0625-0.03125 0.125v0.09375h0.40625v0.34375h-0.40625v1.1562h-0.46875v-1.1562h-0.25v-0.34375h0.25v-0.09375c0-0.16406 0.039063-0.28516 0.125-0.35938 0.09375-0.082031 0.23438-0.125 0.42188-0.125z"/>
  </symbol>
  <symbol id="g" overflow="visible">
   <path d="m0.9375-1.1875c-0.10547 0-0.1875 0.039062-0.25 0.10938-0.054688 0.074219-0.078125 0.18359-0.078125 0.32812 0 0.14844 0.023437 0.26172 0.078125 0.34375 0.0625 0.074219 0.14453 0.10938 0.25 0.10938 0.10156 0 0.17969-0.035156 0.23438-0.10938 0.0625-0.082031 0.09375-0.19531 0.09375-0.34375 0-0.14453-0.03125-0.25391-0.09375-0.32812-0.054687-0.070313-0.13281-0.10938-0.23438-0.10938zm0-0.34375c0.25781 0 0.46094 0.074219 0.60938 0.21875 0.14453 0.13672 0.21875 0.32422 0.21875 0.5625 0 0.25-0.074219 0.44531-0.21875 0.57812-0.14844 0.13672-0.35156 0.20312-0.60938 0.20312-0.26172 0-0.46484-0.066406-0.60938-0.20312-0.13672-0.13281-0.20312-0.32812-0.20312-0.57812 0-0.23828 0.066406-0.42578 0.20312-0.5625 0.14453-0.14453 0.34766-0.21875 0.60938-0.21875z"/>
  </symbol>
  <symbol id="q" overflow="visible">
   <path d="m1.6094-1.25c0.0625-0.09375 0.13281-0.16016 0.21875-0.20312 0.082031-0.050781 0.17578-0.078125 0.28125-0.078125 0.16406 0 0.29688 0.054688 0.39062 0.15625 0.09375 0.10547 0.14062 0.26172 0.14062 0.46875v0.90625h-0.48438v-0.78125-0.03125-0.0625c0-0.10156-0.015625-0.17578-0.046875-0.21875-0.03125-0.050781-0.085937-0.078125-0.15625-0.078125-0.085937 0-0.15234 0.039063-0.20312 0.10938-0.054688 0.074219-0.078125 0.18359-0.078125 0.32812v0.73438h-0.48438v-0.78125c0-0.16406-0.015625-0.26953-0.046875-0.3125-0.023437-0.050781-0.070313-0.078125-0.14062-0.078125-0.09375 0-0.16797 0.042969-0.21875 0.125-0.054688 0.074219-0.078125 0.17969-0.078125 0.3125v0.73438h-0.46875v-1.5h0.46875v0.21875c0.0625-0.082031 0.12891-0.14453 0.20312-0.1875 0.082031-0.039062 0.16406-0.0625 0.25-0.0625 0.10156 0 0.19141 0.027344 0.26562 0.078125 0.082031 0.054687 0.14453 0.12109 0.1875 0.20312z"/>
  </symbol>
  <symbol id="p" overflow="visible">
   <path d="m0.25-2h0.57812l0.71875 1.375v-1.375h0.48438v2h-0.5625l-0.73438-1.375v1.375h-0.48438z"/>
  </symbol>
  <symbol id="o" overflow="visible">
   <path d="m0.21875-0.57812v-0.92188h0.46875v0.15625 0.3125 0.23438 0.26562c0.007812 0.054688 0.023438 0.089844 0.046875 0.10938 0.019531 0.03125 0.046875 0.058594 0.078125 0.078125 0.03125 0.011719 0.066406 0.015625 0.10938 0.015625 0.09375 0 0.16406-0.035156 0.21875-0.10938 0.0625-0.070312 0.09375-0.17578 0.09375-0.3125v-0.75h0.48438v1.5h-0.48438v-0.21875c-0.074219 0.09375-0.15234 0.16406-0.23438 0.20312-0.074219 0.03125-0.15625 0.046875-0.25 0.046875-0.17969 0-0.3125-0.050781-0.40625-0.15625-0.085938-0.10156-0.125-0.25391-0.125-0.45312z"/>
  </symbol>
  <symbol id="n" overflow="visible">
   <path d="m0.25-2h0.85938c0.25 0 0.44141 0.058594 0.57812 0.17188 0.13281 0.11719 0.20312 0.27734 0.20312 0.48438 0 0.21094-0.070313 0.37109-0.20312 0.48438-0.13672 0.11719-0.32812 0.17188-0.57812 0.17188h-0.34375v0.6875h-0.51562zm0.51562 0.375v0.5625h0.28125c0.10156 0 0.17969-0.019531 0.23438-0.0625 0.050781-0.050781 0.078125-0.125 0.078125-0.21875s-0.027344-0.16016-0.078125-0.20312c-0.054688-0.050781-0.13281-0.078125-0.23438-0.078125z"/>
  </symbol>
  <symbol id="m" overflow="visible">
   <path d="m0.23438-1.5h0.46875v1.4688c0 0.20703-0.046875 0.36328-0.14062 0.46875-0.09375 0.10156-0.23438 0.15625-0.42188 0.15625h-0.23438v-0.3125h0.078125c0.09375 0 0.15625-0.023438 0.1875-0.0625 0.039063-0.042969 0.0625-0.125 0.0625-0.25zm0-0.57812h0.46875v0.39062h-0.46875z"/>
  </symbol>
  <symbol id="l" overflow="visible">
   <path d="m1.4375-1.4531v0.39062c-0.0625-0.039062-0.13281-0.070312-0.20312-0.09375-0.0625-0.019531-0.13281-0.03125-0.20312-0.03125-0.125 0-0.23047 0.042969-0.3125 0.125-0.074219 0.074219-0.10938 0.17969-0.10938 0.3125 0 0.14844 0.035156 0.26172 0.10938 0.34375 0.082031 0.074219 0.1875 0.10938 0.3125 0.10938 0.082031 0 0.15625-0.007813 0.21875-0.03125 0.070312-0.03125 0.13281-0.066406 0.1875-0.10938v0.39062c-0.074219 0.03125-0.15234 0.050781-0.23438 0.0625-0.074219 0.0078125-0.14844 0.015625-0.21875 0.015625-0.27344 0-0.48438-0.066406-0.64062-0.20312-0.14844-0.13281-0.21875-0.32812-0.21875-0.57812 0-0.23828 0.070312-0.42578 0.21875-0.5625 0.15625-0.14453 0.36719-0.21875 0.64062-0.21875 0.070313 0 0.14453 0.011719 0.21875 0.03125 0.082031 0.011719 0.16016 0.027344 0.23438 0.046875z"/>
  </symbol>
 </defs>
 <g>
  <path d="m284.83 259.55v45.441 92.668 74.281 8.0938c0 0.60156-0.007812 1.207 0 1.8086 0 0.097656-0.003906 0.19531 0 0.28906 0.003907 0.23828-0.070312 2.168-0.023437 0.75391 0.046875-1.3633 0.089844 0.042969-0.042969-0.019531-0.066406 0.23047-0.13281 0.46094-0.19531 0.6875 0.41797-0.84766 0.41797-0.84766 0-0.003906-0.21875 0.41406-0.46484 0.8125-0.73047 1.1953 0.50781-0.64063 0.57031-0.74219 0.17969-0.3125-0.24609 0.37109-1.5078 1.2383-0.18359 0.3125-0.57031 0.39844-1.1875 0.77344-1.8242 1.043 1.8086-0.76562-0.03125-0.066406-0.050781-0.11719-0.23438 0.050781-0.46875 0.10547-0.70703 0.15625 0.97266-0.12109 0.96875-0.14844-0.019531-0.089844-0.16797-0.007813-0.33984 0-0.50391 0-1.1172 0.011719-2.2344 0-3.3516 0h-14.312-84.73c-2.4531 0-4.9336-0.10938-7.3828 0-0.61328 0.027344-1.4336-0.17188-0.066406 0.089844 0.035156 0.007812-2.2188-0.59766-1.0781-0.19531 1.1055 0.39062-0.91797-0.5-0.92188-0.50391-1.8164-0.90234 0.91016 0.97266-0.52734-0.44141-1.0508-1.0352-0.26953-0.24609-0.058594 0.058594-0.39844-0.57031-0.77344-1.1875-1.043-1.8242 0.85547 2.0156-0.015624-2.3086 0.074219-0.03125-0.019531-0.50781-0.019531-1.0117-0.023437-1.5156-0.03125-5.9844 0-11.969 0-17.953v-82.203-89.215-26.629c0-1.8203-0.003906-3.6367 0-5.4531 0.003906-2.2695 0.085937-4.5352 0.30469-6.7969 0.050781-0.52734 0.10938-1.0547 0.16797-1.582-0.20312 1.7695 0.12891-0.79687 0.15234-0.94531 0.21484-1.2891 0.46875-2.5664 0.75781-3.8398 0.6875-3.0156 1.5859-5.9805 2.6875-8.8672-0.042968 0.11719 0.89062-2.2109 0.44531-1.1523-0.44531 1.0586 0.55859-1.2266 0.50781-1.1172 0.58594-1.2656 1.2109-2.5117 1.875-3.7422 1.3789-2.5547 2.9258-5.0156 4.625-7.3672 0.082031-0.11328 1.5977-2.0781 0.53906-0.74609 0.3125-0.39453 0.62891-0.78516 0.94922-1.1719 0.96094-1.1602 1.9648-2.2852 3.0039-3.3789 1.9023-2.0039 3.9297-3.8867 6.0625-5.6406 0.10938-0.089843 2.0781-1.5898 0.71484-0.57812 0.40625-0.30078 0.80859-0.59766 1.2188-0.89063 1.2305-0.87891 2.4883-1.7188 3.7773-2.5117 2.3789-1.4648 4.8516-2.7305 7.3672-3.9336 2.2461-1.0742-1.4727 0.53125 0.85156-0.375 0.71484-0.28125 1.4297-0.55859 2.1484-0.82031 1.4414-0.52344 2.9023-0.99219 4.375-1.4141 3.0508-0.87109 6.832-1.6836 9.2656-1.9102 7.4062-0.69141 14.07-0.38281 20.871 1.293 3.0195 0.74219 5.957 1.7188 8.8516 2.8516 2.3164 0.90625-1.3789-0.71094 0.85156 0.375 0.57031 0.27734 1.1523 0.53516 1.7227 0.81641 1.4766 0.72656 2.9297 1.5039 4.3477 2.3359 2.1758 1.2773 4.2656 2.6836 6.293 4.1836-1.3672-1.0078 0.60547 0.48828 0.71484 0.57812 0.58203 0.47656 1.1562 0.96875 1.7227 1.4648 1.1328 0.99609 2.2305 2.0273 3.293 3.0977 0.88672 0.89063 1.7461 1.8047 2.5781 2.7461 0.5 0.5625 0.99219 1.1367 1.4727 1.7148-0.078125-0.09375 1.4648 1.832 0.76953 0.9375s0.78906 1.0781 0.71875 0.98047c0.44141 0.61328 0.875 1.2305 1.2969 1.8594 0.84375 1.2578 1.6484 2.543 2.4062 3.8516 0.63281 1.0977 1.2344 2.2109 1.8047 3.3398 0.34375 0.67969 0.67578 1.3672 0.99609 2.0586 0.058594 0.12891 1.043 2.4414 0.39062 0.84375 0.96875 2.375 1.7969 4.8086 2.4883 7.2812 0.76953 2.7578 1.375 5.5742 1.7656 8.4102-0.21094-1.5273 0.003906 0.19531 0.042968 0.57422 0.066406 0.66016 0.125 1.3242 0.17188 1.9883 0.10156 1.6055 0.14844 3.2148 0.15625 4.8281 0.027344 4.2891 3.7539 8.4023 8.2031 8.2031 4.4219-0.19922 8.2305-3.6055 8.2031-8.2031-0.15234-25.547-13.219-49.398-34.641-63.312-23.965-15.566-56.305-15.676-80.43-0.40625-21.484 13.594-34.957 37.457-35.273 62.91-0.058593 4.625-0.003906 9.2539-0.003906 13.879v79.996 92.992 29.309c0 2.1523-0.011719 4.3047 0 6.4609 0.050781 8.8906 5.0742 16.645 13.562 19.691 3.6133 1.2969 7.4531 1.0859 11.219 1.0859h15.965 46.895 37.93c4.5977 0 8.7969 0.039062 13.18-1.9141 7.4766-3.3359 11.562-10.879 11.602-18.863 0.09375-18.871 0-37.746 0-56.617v-96.375-65.535-3.2969c0-4.2891-3.7734-8.4023-8.2031-8.2031-4.4453 0.19531-8.207 3.6016-8.207 8.1992z"/>
  <path d="m244.33 168.69v28.348c3.4609-2.6367 6.9219-5.2734 10.383-7.9102-18.418-6.2969-38.887-6.2969-57.305 0 3.4609 2.6367 6.9219 5.2734 10.383 7.9102v-14.719-9.5977c0-0.99219 0.03125-1.9922 0-2.9844-0.050781-1.5977 0.035156-0.32812-0.14062-0.35938 0.0625-0.23828 0.12109-0.47266 0.18359-0.71094-0.38672 0.83594-0.35156 0.83984 0.10547 0.019531-0.36328 0.41016-0.5 0.55078-0.94141 0.94141 1.6641-1.4727-0.066406 0.19922-0.019531-0.10547 0.0625-0.40625 1.7891-0.074219 0.035156-0.039063 0.38672-0.007813 0.77344 0 1.1562 0h6.8398 20.23 8.2734c0.52344 0 1.0586 0.035156 1.582 0 0.28516-0.019531-0.83203 0.55469-0.66016-0.14062 0.23828 0.0625 0.47266 0.12109 0.71094 0.18359-0.83594-0.38672-0.83984-0.35156-0.019532 0.10547-0.44141-0.39062-0.57812-0.53125-0.94141-0.94141 0.45703 0.82031 0.49219 0.81641 0.10547-0.019531 0.22656 0.93359 0.24219 0.94141 0.039062 0.019531 0.21484 4.2773 3.6172 8.4102 8.2031 8.2031 4.2578-0.19141 8.4336-3.6133 8.2031-8.2031-0.4375-8.6914-6.8164-15.32-15.621-15.617-1.4961-0.050781-3 0-4.4961 0h-22.254c-5.8281 0-13.012-0.96094-18.391 1.7031-5.5312 2.7422-8.4922 8.3672-8.5898 14.391-0.042969 2.6172 0 5.2383 0 7.8594v20.012c0 5.0664 5.2812 9.6562 10.383 7.9102 16.074-5.4922 32.516-5.4922 48.582 0 5.1016 1.7422 10.383-2.8438 10.383-7.9102v-28.348c0-4.2891-3.7734-8.4023-8.2031-8.2031-4.4414 0.19922-8.1992 3.6016-8.1992 8.2031z"/>
  <path d="m220.94 452.05h63.035 9.1055c4.4336 0 8.2031-3.7578 8.2031-8.2031v-53.27-84.867-19.426c0-4.4336-3.7578-8.2031-8.2031-8.2031h-48.926c-7.4141 0-14.832-0.027344-22.246 0-11.723 0.042969-20.539 8.7227-20.609 20.473-0.085937 14.141 0 28.285 0 42.426v64.145 21.547c0 7.2539 0.17188 14.375 6.0078 19.863 3.7617 3.5508 8.4961 5.3516 13.633 5.5156 4.293 0.14062 8.3984-3.8711 8.2031-8.2031-0.20312-4.5625-3.6055-8.0547-8.2031-8.2031-0.4375-0.015625-1.4609-0.26562-0.035156 0.078125-0.35547-0.085938-0.70312-0.16016-1.0547-0.26562-1.1992-0.35938 1.1641 0.28516-0.023437 0.023437-0.30859-0.066406-0.65234-0.37109-0.92188-0.52734 1.1445 0.65625 0.32422 0.33594-0.003906-0.015625-0.32031-0.34766-0.66797-0.64844-0.96484-1.0234 1.1094 1.4023-0.46875-1.8594 0.050781-0.078125-0.09375-0.32422-0.27344-0.70703-0.28906-1.0469-0.054688-1.2617-0.125 1.2812 0.007812-0.015625 0.023438-0.21875-0.015625-0.26172-0.011719-0.40234 0.003907-0.097657-0.003906-0.19531 0-0.29297 0.03125-1.3516 0-2.707 0-4.0625v-19.598-60.918-46.574c0-1.0469 0.015626-2.0938 0-3.1406-0.03125-1.9141 0.007813 0.46875 0.003907-0.44922-0.003907-0.32422 0.19531-0.73438 0.28906-1.0469-0.57812 1.9766-0.070312-0.14844 0.035157 0.003906-0.054688-0.078124 1.0781-1.5508-0.085938-0.082031 0.29297-0.36719 0.64453-0.67969 0.96484-1.0234 1.0195-1.0977 0.32031-0.19922 0.003906-0.015625 0.41406-0.23828 0.80078-0.48438 1.2344-0.69141-1.2617 0.58984 0.21484 0.054688 0.76562-0.078124-1.4453 0.35156-0.26172 0.066406 0.23047 0.078124 5.9961 0.16797 12.023 0 18.023 0h52.812 1.1055c-2.7344-2.7344-5.4688-5.4688-8.2031-8.2031v53.27 84.867 19.426c2.7344-2.7344 5.4688-5.4688 8.2031-8.2031h-63.035-9.1055c-4.2891 0-8.4023 3.7734-8.2031 8.2031 0.20312 4.4531 3.6094 8.2109 8.207 8.2109z"/>
  <path d="m469.38 270.11c9.7812 0 19.793 0.88281 28.625-4.2383 10.41-6.0391 15.684-17.039 15.684-28.801v-49.129-17.207c0-4.2891-3.7734-8.4023-8.2031-8.2031-4.4453 0.19922-8.2031 3.6055-8.2031 8.2031v39.652 23.281c0 1.6133 0.019531 3.2266 0 4.8359-0.003906 0.42969-0.011719 0.85938-0.03125 1.293-0.019532 0.37891-0.050782 0.75781-0.078125 1.1367 0.011719-0.13672 0.22266-1.2773 0.035156-0.32422-0.16797 0.84766-0.34766 1.6836-0.59375 2.5156-0.14062 0.46875-0.3125 0.92188-0.46094 1.3867 0.039062-0.11719 0.52734-1.1445 0.13281-0.28516-0.30078 0.65625-0.63281 1.2969-0.99609 1.918-0.35938 0.62109-0.75781 1.2148-1.1641 1.8086-0.52344 0.76953 0.10938-0.14062 0.19531-0.24219-0.30859 0.36328-0.62109 0.72266-0.94531 1.0703-0.65234 0.69531-1.3555 1.3398-2.0781 1.957 1.1172-0.95312-0.51953 0.32812-0.95312 0.59766-0.71484 0.44531-1.457 0.82812-2.207 1.2109-0.10547 0.054687-1.1992 0.48438-0.35156 0.16016 0.97656-0.37109-0.89062 0.26562-1.0781 0.32031-0.82812 0.24609-1.668 0.42578-2.5156 0.59375-0.94922 0.1875 0.1875-0.023438 0.32422-0.035157-0.50391 0.039063-1.0078 0.082031-1.5156 0.097657-0.625 0.023437-1.2539 0.011718-1.8789 0.011718h-11.742c-4.2891 0-8.4023 3.7734-8.2031 8.2031 0.19922 4.4492 3.6055 8.2109 8.2031 8.2109z"/>
  <path d="m535.1 129.1c-15.711 15.891-31.426 31.781-47.137 47.672-5.6016 5.6641-11.203 11.332-16.805 16.996-1.5352 1.5508-3.1172 3.0703-4.6094 4.6641-3.4531 3.6836-5.2344 8.1133-5.3828 13.141-0.21484 7.5 0 15.039 0 22.539v97.742 37.355c0 2.5742 0.007812 5.1445 0 7.7188v0.39453c-0.007813 1.2773-0.046875 2.5508-0.14844 3.8242-0.058593 0.75391-0.12891 1.5039-0.22656 2.2539 0.24219-1.8711-0.24219 1.1836-0.30859 1.5078-0.53906 2.6562-1.3633 5.1992-2.2578 7.75-0.78125 2.2266 0.72266-1.4023-0.29297 0.71875-0.3125 0.65234-0.61328 1.3086-0.94141 1.9531-0.76172 1.4961-1.6016 2.9531-2.5117 4.3633-0.39062 0.60156-0.79297 1.1953-1.207 1.7812-0.125 0.17578-1.5859 2.0273-0.44531 0.625-0.75391 0.92578-1.5273 1.832-2.3398 2.707-0.97266 1.0469-1.9922 2.0508-3.0547 3.0117-0.53125 0.48047-1.0859 0.92969-1.625 1.4023-0.73047 0.58594-0.73828 0.60156-0.023438 0.050782-0.38281 0.28906-0.76562 0.57031-1.1562 0.84766-2.1484 1.5273-4.4219 2.8828-6.793 4.043-0.64844 0.32031-1.3047 0.625-1.9688 0.91406 1.6875-0.73047-0.53906 0.18359-0.73828 0.25391-1.6055 0.58984-3.2422 1.0938-4.9023 1.5078-1.4414 0.36328-2.8984 0.64062-4.3672 0.88281 1.875-0.30859-0.57812 0.054688-0.80469 0.078125-0.75781 0.070313-1.5156 0.125-2.2734 0.15625-2.7891 0.12891-5.6055 0.039063-8.375-0.32031 1.8867 0.24219-0.55859-0.125-0.77734-0.16406-0.73047-0.13672-1.457-0.28906-2.1758-0.45703-1.4336-0.33594-2.8477-0.73828-4.2422-1.1992-0.69141-0.23047-1.3711-0.49609-2.0625-0.73828-2.2266-0.78125 1.4023 0.72266-0.71875-0.29297-1.3047-0.625-2.6016-1.25-3.8594-1.9648-1.25-0.70703-2.4688-1.4727-3.6523-2.2852-0.58984-0.40625-1.1719-0.82422-1.7422-1.2578 1.4414 1.0977-0.41406-0.375-0.57422-0.50781-2.1953-1.8672-4.1172-3.9453-6.0156-6.1055-1.5352-1.7461 0.86328 1.3047-0.47656-0.59766-0.41406-0.58594-0.83594-1.1641-1.2344-1.7617-0.79688-1.1953-1.543-2.4258-2.2344-3.6875-0.69531-1.2695-1.332-2.5664-1.9102-3.8906 0.73047 1.6875-0.18359-0.53906-0.25391-0.73828-0.33594-0.91406-0.64453-1.8398-0.92187-2.7734-0.35156-1.1758-0.66016-2.3672-0.92188-3.5664-0.16016-0.72656-0.27734-1.4609-0.42578-2.1914-0.48828-2.375 0.097657 1.6406-0.12109-0.78906-0.16016-1.7969-0.27734-3.582-0.28906-5.3867-0.003906-0.46484 0-0.92969 0-1.3945v-62.688-102.35-68.758c0-14.844-2.793-29.152-9.9766-42.301-11.773-21.547-33.773-37.238-58.105-40.871-25.527-3.8125-51.617 4.2773-69.965 22.625-8.8359 8.8359-15.465 19.672-19.5 31.48-3.207 9.375-4.1836 19.172-4.1836 29.023v19.238c0 4.2891 3.7734 8.4023 8.2031 8.2031 4.4453-0.19922 8.2031-3.6055 8.2031-8.2031v-20c0-3.6562 0.11719-7.2812 0.47656-10.926 0.24219-2.4609-0.31641 1.6289 0.10938-0.79688 0.085937-0.49219 0.16016-0.98438 0.24609-1.4727 0.25781-1.4609 0.56641-2.9141 0.91406-4.3594 0.75-3.0859 1.6992-6.125 2.8477-9.0898 0.074219-0.19531 1.0156-2.4141 0.27734-0.73047 0.19531-0.44141 0.39062-0.88281 0.58984-1.3242 0.60156-1.3125 1.2461-2.6094 1.9258-3.8867 1.4648-2.75 3.1094-5.4023 4.918-7.9414 0.41406-0.58594 0.83984-1.1602 1.2734-1.7344-1.0938 1.4453 0.35938-0.42969 0.49219-0.58984 0.75781-0.92188 1.5352-1.8242 2.3359-2.707 2.082-2.2969 4.3086-4.4609 6.668-6.4727 0.54297-0.46484 1.1016-0.91406 1.6523-1.3711 1.8086-1.5078-1.3086 0.90234 0.60547-0.46875 0.97266-0.69531 1.9375-1.4023 2.9297-2.0664 2.5938-1.7344 5.3008-3.3008 8.0938-4.6875 0.64844-0.32031 1.3008-0.63281 1.957-0.93359 0.19141-0.089843 2.4023-1.0273 0.70312-0.33203 1.1211-0.46094 2.2578-0.89453 3.4023-1.3008 3.0039-1.0625 6.082-1.9258 9.2031-2.5781 1.4609-0.30859 2.9297-0.5625 4.4062-0.78516-1.8828 0.28125 0.58984-0.058594 0.80469-0.082031 0.62891-0.066407 1.2539-0.12109 1.8867-0.17188 2.9297-0.23047 5.8711-0.28125 8.8047-0.16016 1.5195 0.0625 3.0352 0.17188 4.5469 0.33203 0.21484 0.023437 2.6875 0.36328 0.80469 0.082031 0.73828 0.10938 1.4766 0.22656 2.2148 0.35938 2.9102 0.51953 5.7891 1.2148 8.6172 2.0859 1.3984 0.42969 2.7812 0.90234 4.1484 1.418 0.67969 0.25781 1.3594 0.52344 2.0312 0.80078-1.6992-0.69922 0.50781 0.24219 0.70312 0.33203 2.6211 1.2031 5.1719 2.5664 7.6328 4.0742 1.2266 0.75 2.4258 1.5391 3.6055 2.3594 0.58984 0.41016 1.1641 0.83984 1.7461 1.2578 1.9141 1.375-1.2031-1.0391 0.60547 0.46875 2.2031 1.8359 4.3477 3.7148 6.3555 5.7617 1 1.0234 1.9727 2.0742 2.9141 3.1523 0.46875 0.53906 0.93359 1.0859 1.3867 1.6406 0.13281 0.16016 1.5859 2.0352 0.49219 0.58984 1.7305 2.2891 3.332 4.6797 4.7852 7.1602 1.4609 2.4961 2.7656 5.0742 3.9258 7.7227-0.73828-1.6836 0.20312 0.53125 0.27734 0.73047 0.26172 0.67969 0.51563 1.3633 0.75781 2.0508 0.48828 1.3828 0.93359 2.7773 1.3359 4.1875 0.81641 2.8594 1.3984 5.7539 1.9141 8.6797 0.42969 2.4258-0.13281-1.6641 0.10938 0.79688 0.074219 0.75391 0.16016 1.5039 0.22266 2.2578 0.125 1.5195 0.20703 3.0469 0.23828 4.5703 0.015624 0.77734 0.015624 1.5508 0.015624 2.3281 0.019532 19.82 0 39.641 0 59.461v101.65 71.953c0 12.742 2.0703 25.16 9.3203 36.016 14.441 21.633 42.832 31.773 67.465 22.316 22.402-8.5977 37.281-29.781 37.398-53.852 0.039063-7.6133 0-15.227 0-22.836v-97.352-37.605c0-2.5078-0.039062-5.0156 0-7.5234 0-0.11328-0.003906-0.22266 0-0.33594 0.03125-1.2383 0.10938-0.85156 0.77734-1.5586 1.7461-1.8438 3.5742-3.6172 5.3594-5.4219 18.316-18.523 36.629-37.051 54.945-55.574 2.6797-2.7109 5.3633-5.4219 8.043-8.1328 3.1133-3.1523 3.1445-8.457 0-11.602-3.1172-3.1445-8.4648-3.1758-11.59-0.015626z"/>
  <use x="70" y="568.203125" xlink:href="#v"/>
  <use x="72.007812" y="568.203125" xlink:href="#f"/>
  <use x="73.355469" y="568.203125" xlink:href="#a"/>
  <use x="75.210937" y="568.203125" xlink:href="#e"/>
  <use x="77.054688" y="568.203125" xlink:href="#d"/>
  <use x="78.363281" y="568.203125" xlink:href="#a"/>
  <use x="80.214844" y="568.203125" xlink:href="#k"/>
  <use x="83.125" y="568.203125" xlink:href="#j"/>
  <use x="85.082031" y="568.203125" xlink:href="#i"/>
  <use x="87.816406" y="568.203125" xlink:href="#c"/>
  <use x="89.445312" y="568.203125" xlink:href="#b"/>
  <use x="91.390625" y="568.203125" xlink:href="#e"/>
  <use x="93.238281" y="568.203125" xlink:href="#c"/>
  <use x="94.863281" y="568.203125" xlink:href="#b"/>
  <use x="96.8125" y="568.203125" xlink:href="#e"/>
  <use x="98.65625" y="568.203125" xlink:href="#h"/>
  <use x="100.601562" y="568.203125" xlink:href="#u"/>
  <use x="103.375" y="568.203125" xlink:href="#c"/>
  <use x="105" y="568.203125" xlink:href="#t"/>
  <use x="105.9375" y="568.203125" xlink:href="#h"/>
  <use x="107.882812" y="568.203125" xlink:href="#s"/>
  <use x="109.84375" y="568.203125" xlink:href="#b"/>
  <use x="70" y="570.9375" xlink:href="#r"/>
  <use x="71.191406" y="570.9375" xlink:href="#f"/>
  <use x="72.539062" y="570.9375" xlink:href="#g"/>
  <use x="74.417969" y="570.9375" xlink:href="#q"/>
  <use x="78.21875" y="570.9375" xlink:href="#d"/>
  <use x="79.523438" y="570.9375" xlink:href="#b"/>
  <use x="81.472656" y="570.9375" xlink:href="#a"/>
  <use x="84.277344" y="570.9375" xlink:href="#p"/>
  <use x="86.566406" y="570.9375" xlink:href="#g"/>
  <use x="88.445312" y="570.9375" xlink:href="#o"/>
  <use x="90.390625" y="570.9375" xlink:href="#h"/>
  <use x="93.289062" y="570.9375" xlink:href="#n"/>
  <use x="95.292969" y="570.9375" xlink:href="#f"/>
  <use x="96.644531" y="570.9375" xlink:href="#g"/>
  <use x="98.519531" y="570.9375" xlink:href="#m"/>
  <use x="99.457031" y="570.9375" xlink:href="#a"/>
  <use x="101.3125" y="570.9375" xlink:href="#l"/>
  <use x="102.933594" y="570.9375" xlink:href="#d"/>
 </g>
</svg>
