<?xml version="1.0" standalone="no"?>
<!DOCTYPE svg PUBLIC "-//W3C//DTD SVG 20010904//EN"
 "http://www.w3.org/TR/2001/REC-SVG-20010904/DTD/svg10.dtd">
<svg version="1.0" xmlns="http://www.w3.org/2000/svg"
 width="901.000000pt" height="1280.000000pt" viewBox="0 0 901.000000 1280.000000"
 preserveAspectRatio="xMidYMid meet">
<metadata>
Created by potrace 1.15, written by Peter Selinger 2001-2017
</metadata>
<g transform="translate(0.000000,1280.000000) scale(0.100000,-0.100000)"
fill="#000000" stroke="none">
<path d="M7830 12726 l0 -74 -102 -58 c-130 -73 -402 -254 -505 -336 -100 -79
-232 -213 -384 -390 -66 -77 -152 -169 -190 -206 -39 -36 -77 -78 -84 -93 -8
-14 -24 -73 -36 -130 -49 -239 -132 -460 -286 -762 -71 -139 -106 -197 -136
-223 -47 -43 -49 -41 -66 71 -33 214 -125 398 -280 558 -188 195 -459 335
-826 427 -71 18 -133 36 -137 39 -4 3 35 70 86 149 52 78 106 173 121 210 43
108 45 222 4 328 l-10 29 -28 -45 c-15 -25 -49 -96 -76 -159 -27 -63 -60 -128
-74 -144 -29 -34 -77 -57 -120 -57 -39 0 -66 -35 -75 -96 -8 -61 -38 -108 -83
-129 -30 -15 -52 -16 -130 -11 -51 4 -93 4 -93 -1 0 -4 16 -21 36 -37 27 -22
60 -34 128 -47 50 -10 102 -27 116 -37 38 -28 58 -78 70 -175 10 -79 9 -93 -7
-125 -28 -58 -69 -75 -176 -75 -73 0 -102 4 -143 22 -95 41 -146 118 -147 221
0 48 5 63 35 107 20 29 41 74 47 100 11 46 10 54 -36 178 l-48 130 -57 3 c-47
2 -61 8 -76 27 -22 28 -53 125 -77 238 -13 59 -24 87 -46 110 l-29 32 -26 -30
c-27 -29 -27 -30 -20 -150 11 -196 43 -319 111 -425 34 -55 78 -141 73 -145
-2 0 -61 -14 -133 -29 -362 -76 -595 -191 -817 -404 -97 -93 -102 -101 -164
-229 -35 -73 -80 -156 -99 -184 -19 -29 -38 -63 -41 -76 -12 -44 4 -118 44
-211 22 -51 36 -94 32 -97 -4 -2 -32 31 -63 75 -46 63 -57 86 -57 117 0 22
-33 134 -75 258 -66 194 -75 227 -75 292 0 70 1 73 24 73 26 0 23 11 84 -335
16 -86 21 -100 37 -100 18 0 20 6 17 75 -2 82 -70 562 -102 730 -22 114 -26
121 -117 187 -29 21 -136 111 -238 201 -102 89 -194 162 -205 162 -27 0 -50
-27 -50 -59 0 -30 12 -42 213 -209 l98 -82 65 0 c35 0 64 -3 64 -6 0 -3 -13
-16 -29 -30 -49 -41 -48 -66 10 -239 69 -205 79 -205 79 5 0 153 1 160 20 160
16 0 25 -17 49 -97 57 -185 51 -228 -45 -289 -29 -19 -55 -42 -58 -52 -12 -35
44 -227 132 -462 49 -129 92 -256 96 -281 15 -101 103 -241 183 -290 34 -21
34 -21 56 -1 57 51 92 54 134 10 30 -32 68 -96 61 -104 -2 -2 -46 10 -97 27
-52 16 -96 28 -98 25 -2 -2 39 -55 91 -118 53 -62 96 -116 96 -120 0 -3 -16
-15 -35 -27 l-35 -20 0 -88 c0 -81 -3 -95 -35 -162 -73 -151 -97 -237 -102
-356 -5 -98 -3 -118 19 -183 l25 -72 -24 -35 c-46 -67 -116 -85 -244 -61 -158
29 -264 38 -308 26 -23 -6 -41 -15 -41 -19 0 -5 -34 -55 -76 -112 -126 -172
-147 -230 -124 -340 l13 -61 -221 -446 c-121 -246 -233 -477 -248 -514 -15
-38 -29 -68 -31 -68 -2 0 -13 5 -24 10 -37 20 -16 100 46 176 35 42 125 195
183 310 33 65 66 167 60 186 -9 27 -398 -607 -418 -682 -7 -25 -19 -54 -28
-64 -10 -10 -190 -184 -401 -385 l-385 -366 -67 0 c-61 0 -76 -5 -182 -58
-122 -61 -148 -87 -111 -114 27 -20 51 -16 111 18 44 25 61 30 89 24 55 -10
100 10 135 61 29 42 32 44 69 38 35 -6 48 -1 113 39 193 121 292 209 614 550
122 128 142 136 174 60 60 -143 83 -184 104 -181 19 3 20 12 27 173 11 258 19
299 90 455 113 245 505 1024 531 1056 37 44 65 48 134 23 81 -31 159 -109 168
-170 8 -55 1 -73 -148 -379 -112 -229 -396 -835 -523 -1116 -66 -144 -78 -200
-47 -206 14 -2 36 34 100 162 94 189 129 230 191 230 37 0 39 -1 34 -27 -2
-16 -59 -156 -124 -313 -168 -399 -308 -748 -431 -1075 -157 -417 -301 -791
-334 -870 -17 -38 -67 -132 -112 -208 -45 -76 -109 -188 -141 -250 -33 -61
-60 -109 -60 -106 0 3 23 55 51 115 54 114 136 332 528 1415 215 593 275 779
256 797 -2 3 -16 0 -29 -6 -19 -8 -39 -48 -96 -194 -40 -101 -143 -363 -230
-583 -87 -220 -181 -474 -210 -565 -189 -608 -231 -711 -399 -990 -93 -154
-147 -258 -267 -515 -411 -885 -562 -1341 -605 -1830 -14 -161 -6 -739 11
-845 18 -108 168 -521 260 -715 82 -174 173 -274 305 -336 238 -112 579 -21
920 246 75 58 291 248 412 361 95 90 217 229 540 615 543 652 649 798 832
1146 113 214 90 206 210 67 56 -66 131 -163 167 -216 110 -166 182 -222 366
-287 102 -35 153 -60 228 -111 76 -51 143 -73 200 -65 51 8 81 21 195 88 44
26 129 63 190 82 60 20 130 48 155 62 67 40 145 117 213 213 33 47 102 136
154 198 93 112 95 113 115 95 11 -10 99 -135 196 -278 522 -772 608 -877 1022
-1241 113 -99 282 -255 376 -345 278 -269 345 -320 569 -438 66 -35 149 -81
185 -102 135 -79 311 -91 437 -29 82 41 236 189 310 300 161 240 254 547 284
932 24 317 -30 841 -136 1316 -117 526 -191 692 -637 1450 -272 461 -351 616
-428 837 -30 84 -59 145 -97 203 -31 45 -60 85 -64 88 -19 11 -21 -29 -5 -91
20 -79 20 -81 0 -64 -22 18 -32 39 -155 330 -61 144 -238 548 -393 898 -396
891 -383 860 -366 871 8 6 18 10 21 10 6 0 176 -316 342 -638 80 -154 128
-262 158 -350 23 -70 43 -128 44 -130 5 -6 55 22 55 30 0 5 -30 61 -66 125
-45 79 -82 163 -115 261 -64 187 -70 201 -306 697 -199 417 -251 533 -376 840
-36 88 -86 210 -111 270 -55 133 -57 156 -13 199 51 51 222 148 270 153 64 8
85 -15 127 -139 24 -69 40 -103 50 -103 12 0 15 15 13 85 l-3 85 25 -50 c39
-79 41 -107 11 -195 -14 -42 -26 -87 -26 -99 0 -11 43 -152 96 -313 113 -346
165 -545 189 -723 17 -130 34 -196 58 -229 13 -17 14 -17 30 -1 10 9 17 32 17
52 0 19 7 59 16 89 l16 55 43 -33 c24 -18 103 -82 177 -141 295 -240 486 -339
709 -367 46 -5 85 -10 86 -10 8 0 1 35 -12 60 -18 35 -50 53 -163 91 -157 53
-353 167 -472 275 -36 33 -104 91 -151 131 -101 84 -135 123 -162 182 -30 69
-119 336 -227 686 -177 572 -216 669 -306 762 -75 76 -128 98 -234 97 -75 0
-96 -5 -175 -38 -140 -58 -161 -63 -202 -40 -40 21 -133 135 -170 207 -32 63
-54 169 -46 223 5 39 -3 59 -86 229 -50 103 -91 190 -91 194 0 4 33 18 73 31
l72 23 -65 18 c-98 28 -96 27 -66 50 37 29 31 58 -17 85 l-37 21 71 28 c141
55 277 167 381 315 64 91 203 349 368 681 l141 284 8 95 c5 52 8 96 6 98 -6 6
-75 -124 -101 -189 -29 -73 -35 -81 -50 -71 -7 5 6 69 40 199 47 178 53 193
73 193 17 0 24 -8 29 -27 18 -84 12 -90 155 155 117 201 137 230 155 226 16
-4 30 7 63 50 60 78 174 183 256 237 151 100 468 263 590 304 124 42 118 36
113 114 -3 43 -15 89 -30 123 -27 57 -36 64 -120 82 l-28 6 0 -74z m-3737
-960 c42 -17 93 -76 102 -116 6 -26 3 -37 -14 -53 -21 -21 -21 -21 -47 -2 -14
11 -48 57 -75 103 -48 81 -49 82 -24 82 14 0 40 -6 58 -14z m747 -2 c0 -3 -34
-46 -76 -95 -71 -84 -77 -89 -94 -74 -15 13 -16 23 -8 57 12 57 24 76 61 98
29 18 117 29 117 14z m-788 -316 l71 -11 -7 -85 c-8 -102 -27 -145 -77 -179
-53 -35 -185 -90 -389 -163 -313 -111 -353 -135 -542 -317 -70 -68 -131 -123
-136 -123 -11 0 -32 78 -32 117 1 75 90 237 190 347 163 177 468 344 745 406
99 23 92 22 177 8z m1019 -67 c157 -43 327 -131 524 -274 94 -68 104 -79 170
-184 38 -61 89 -134 112 -163 64 -78 87 -187 66 -313 l-6 -38 -47 89 c-63 119
-100 171 -182 258 -158 166 -327 261 -610 343 -144 41 -237 83 -292 131 -28
25 -36 41 -41 78 -3 26 -8 60 -10 76 l-5 29 122 -6 c77 -3 151 -13 199 -26z
m-721 -306 c78 -35 87 -37 165 -33 71 4 90 9 149 41 36 20 76 37 88 37 26 0
430 -150 596 -221 224 -96 311 -156 382 -261 40 -60 73 -152 84 -235 4 -24 5
-43 4 -43 -18 0 -321 107 -467 165 -218 86 -348 122 -470 131 -47 4 -98 13
-113 20 -16 8 -44 43 -68 83 -41 72 -74 99 -145 121 -25 8 -57 31 -85 61 l-45
48 -90 -77 c-88 -76 -90 -79 -98 -132 -9 -64 -28 -97 -65 -111 -15 -6 -79 -19
-142 -29 -63 -10 -175 -32 -247 -49 -293 -69 -548 -121 -634 -127 l-91 -7 7
24 c30 104 137 235 256 314 93 62 191 103 391 164 92 28 216 72 275 97 59 26
122 51 138 55 58 16 139 3 225 -36z m390 -569 c151 -31 251 -61 283 -86 14
-11 33 -40 43 -65 13 -35 20 -43 30 -34 16 13 7 20 218 -155 112 -94 163 -142
154 -146 -7 -4 -37 -13 -66 -20 -30 -7 -50 -16 -45 -20 4 -4 39 -18 77 -30
115 -38 134 -72 121 -224 l-7 -83 -61 25 c-82 33 -166 34 -231 3 -26 -13 -44
-26 -41 -30 4 -3 68 -18 143 -32 l137 -26 -3 -39 c-5 -52 -37 -108 -82 -139
-20 -14 -74 -38 -120 -54 -121 -41 -120 -41 -120 -67 0 -22 3 -23 43 -18 175
22 178 22 192 0 35 -56 134 -231 132 -233 -2 -1 -40 9 -87 23 -46 13 -86 24
-88 24 -2 0 -2 -12 1 -27 4 -19 -5 -41 -30 -79 -56 -84 -53 -161 9 -246 10
-13 7 -23 -14 -55 -54 -79 -50 -118 27 -234 63 -95 67 -115 63 -284 -3 -119
-3 -120 -17 -77 -8 24 -31 62 -51 85 -37 41 -37 41 -64 24 -30 -20 -32 -32
-10 -87 11 -27 22 -40 35 -40 22 0 25 -13 5 -29 -11 -9 -27 -6 -75 14 -33 14
-64 25 -69 25 -5 0 -17 -57 -26 -127 -9 -70 -18 -128 -19 -130 -2 -1 -30 6
-62 15 l-60 18 -16 75 c-9 41 -18 80 -20 87 -2 7 -53 -43 -114 -113 -60 -69
-112 -125 -116 -125 -3 0 -12 6 -18 14 -10 11 -5 29 24 86 20 40 35 73 33 74
-19 15 -128 86 -132 86 -2 0 -21 -49 -41 -110 -35 -106 -38 -110 -66 -110 -16
0 -29 3 -29 8 0 4 11 43 24 86 14 44 23 83 20 88 -12 19 -32 4 -79 -57 -27
-36 -52 -65 -56 -65 -4 0 -20 29 -35 65 -16 36 -34 65 -42 65 -7 0 -44 -7 -82
-16 l-68 -15 -31 -87 c-44 -121 -45 -122 -66 -68 -10 26 -21 49 -25 51 -4 2
-22 -16 -40 -41 -17 -25 -33 -44 -35 -42 -2 2 2 70 9 151 11 142 11 149 -7
159 -11 5 -23 6 -27 1 -4 -4 -17 -48 -29 -98 -32 -131 -61 -225 -69 -224 -4 0
-30 32 -59 72 -28 40 -65 91 -82 114 l-31 41 50 -1 c35 -2 54 3 61 13 10 15 5
77 -6 89 -8 7 -137 19 -147 14 -5 -2 -8 -22 -8 -44 0 -36 -2 -39 -22 -34 -13
3 -50 11 -83 19 l-60 13 3 42 c5 65 -16 178 -44 238 -15 30 -53 83 -85 118
-73 77 -112 158 -117 243 -4 61 -3 63 32 96 19 19 57 41 83 50 27 9 66 27 88
41 l40 25 -102 -7 c-64 -4 -103 -2 -103 4 0 5 14 22 31 39 26 24 38 29 82 29
29 0 62 -4 75 -8 20 -8 22 -6 22 30 0 53 -13 63 -87 63 -35 0 -63 4 -63 10 0
5 91 111 201 236 196 220 201 227 183 245 -19 18 -21 17 -94 -41 -41 -33 -83
-59 -93 -60 -56 -1 -104 57 -128 156 -7 27 -23 73 -36 103 -12 29 -23 64 -23
76 0 28 33 71 71 90 35 19 99 74 99 86 0 5 -20 9 -44 9 -83 0 -78 18 40 125
59 53 125 105 146 116 21 11 60 42 86 70 195 208 598 296 992 215z m1023 -236
c48 -18 86 -38 85 -42 -2 -5 -41 -37 -88 -72 l-85 -63 -6 52 c-8 66 -33 102
-112 158 -55 39 -85 51 -250 97 -103 29 -187 56 -187 61 0 4 4 19 9 32 l10 25
268 -107 c147 -59 307 -122 356 -141z m-2328 109 c-28 -28 -85 -82 -128 -120
-112 -100 -126 -98 -296 39 l-23 19 118 27 c66 16 171 41 234 56 63 16 122 29
130 29 8 1 -8 -22 -35 -50z m2500 -221 c-16 -71 -47 -93 -116 -82 l-40 7 73
53 c40 29 77 53 81 54 5 0 5 -15 2 -32z m-2596 -665 c36 -71 45 -117 31 -157
-14 -44 -126 -196 -143 -196 -21 1 -140 67 -131 72 5 3 29 9 54 13 25 4 48 9
53 12 4 2 -13 28 -38 56 -25 28 -45 55 -45 58 0 4 50 24 110 44 61 21 109 39
108 41 -2 1 -30 18 -62 38 -61 36 -61 41 -1 49 17 2 33 5 37 6 4 0 16 -16 27
-36z m2397 -93 l29 -10 -55 -115 c-30 -63 -58 -115 -62 -115 -3 0 -32 37 -63
81 -65 93 -66 89 29 138 63 34 78 36 122 21z m-215 -507 c14 -37 37 -171 31
-178 -20 -20 -54 3 -130 90 -89 102 -88 93 -17 108 11 3 39 5 63 6 38 1 44 -2
53 -26z m1069 -134 c0 -6 -193 -115 -288 -163 -32 -16 -33 -16 -58 11 -21 23
-25 35 -21 67 3 21 11 45 19 52 7 7 81 33 163 57 l150 44 17 -31 c9 -17 17
-34 18 -37z m-3921 1 c63 -11 116 -22 118 -24 10 -9 -30 -68 -52 -78 -29 -13
-56 -3 -157 55 -47 27 -68 45 -68 58 0 15 5 18 23 14 12 -2 73 -14 136 -25z
m3398 -229 c154 -218 309 -514 503 -960 60 -139 110 -257 110 -262 0 -5 -10
-14 -22 -20 -20 -11 -26 -7 -65 37 -44 50 -55 74 -164 369 -72 197 -122 303
-274 595 -140 266 -170 330 -158 330 5 0 36 -40 70 -89z m-206 18 c73 -52 55
-16 465 -923 30 -67 54 -133 54 -152 l0 -33 -45 13 c-77 24 -136 66 -255 182
-176 172 -213 246 -250 507 -11 78 -28 176 -36 219 -12 55 -15 97 -9 152 4 42
9 76 12 76 3 0 31 -19 64 -41z m-2701 -317 c0 -47 -23 -244 -35 -305 -27 -130
-114 -265 -262 -408 -105 -101 -256 -229 -270 -229 -6 0 -16 6 -22 14 -9 11
30 107 184 457 108 244 199 447 202 453 3 5 11 2 18 -7 10 -15 19 -13 86 12
90 35 99 36 99 13z m-350 -54 c0 -7 -86 -188 -190 -403 -137 -282 -194 -390
-207 -390 -10 0 -21 14 -28 35 -11 33 -9 41 41 140 29 58 80 165 113 238 72
158 138 273 198 342 43 48 73 64 73 38z m2927 -158 c-3 -54 -15 -116 -32 -170
-23 -71 -57 -154 -71 -168 -3 -5 -168 127 -172 137 -1 4 4 15 11 25 13 17 15
17 45 2 l32 -16 14 32 c31 74 138 314 144 323 15 24 33 -83 29 -165z m1253
-10 c28 -88 53 -167 57 -176 4 -12 1 -15 -12 -13 -13 3 -34 48 -76 164 -54
146 -57 161 -42 173 9 6 18 12 19 12 2 0 26 -72 54 -160z m-3694 -8 c8 -9 46
-63 86 -119 60 -86 74 -100 89 -92 31 16 46 10 53 -23 10 -49 -20 -98 -84
-136 -30 -18 -61 -31 -69 -30 -7 2 -47 87 -88 191 -84 209 -89 245 -31 233 17
-3 37 -14 44 -24z m2454 -502 c0 -120 -4 -190 -10 -190 -6 0 -10 70 -10 190 0
120 4 190 10 190 6 0 10 -70 10 -190z m-1143 146 c26 -22 31 -23 53 -10 43 23
95 17 170 -21 38 -19 76 -35 84 -35 8 0 38 11 68 25 67 32 112 33 132 3 23
-32 20 -58 -14 -146 -77 -200 -243 -360 -445 -428 -157 -52 -324 -31 -459 60
-93 63 -269 219 -325 290 -43 54 -121 192 -121 214 0 10 381 42 560 47 74 2
149 8 165 13 54 18 101 14 132 -12z m918 -22 c28 -31 79 -165 107 -287 21 -88
21 -88 1 -115 -33 -44 -63 -60 -216 -114 l-148 -51 -74 17 c-76 18 -125 46
-125 72 0 15 49 144 59 156 4 4 29 -8 56 -27 48 -34 66 -42 64 -27 -6 35 3
244 10 237 4 -6 16 -41 26 -78 10 -37 21 -64 25 -60 4 4 18 40 30 78 66 203
123 265 185 199z m385 -21 c47 -54 84 -140 124 -288 19 -71 39 -141 44 -155 9
-23 6 -26 -36 -45 l-46 -21 40 -44 41 -45 -5 -70 c-2 -43 2 -96 12 -138 18
-77 21 -167 6 -167 -5 0 -10 6 -10 14 0 24 -49 74 -79 81 -28 6 -121 -12 -121
-24 0 -3 47 -23 104 -44 l104 -39 8 -76 c4 -42 8 -176 8 -297 0 -207 -2 -233
-37 -443 -21 -122 -41 -232 -46 -245 -15 -38 -47 -59 -93 -60 -52 -1 -291 22
-297 29 -4 4 200 1627 216 1722 5 32 7 33 44 27 38 -7 38 -7 30 22 -22 73 -94
309 -98 320 -4 10 13 19 43 22 7 0 27 -16 44 -36z m-2794 -128 c3 -14 4 -67 2
-118 -3 -78 -9 -102 -36 -157 -36 -75 -109 -171 -98 -130 4 14 13 86 20 160
14 135 28 186 66 241 26 36 38 37 46 4z m538 -119 c32 -75 61 -136 65 -136 4
0 18 11 31 25 13 14 28 25 35 25 6 0 39 -29 74 -64 l63 -63 -16 -31 c-14 -27
-23 -31 -68 -37 -29 -3 -134 -5 -232 -3 l-179 3 -21 28 c-17 23 -22 46 -25
118 -3 99 8 130 56 152 22 10 24 16 20 49 -6 43 -2 45 33 18 36 -28 47 -25 72
19 12 22 25 38 28 36 4 -2 32 -65 64 -139z m2645 -26 c90 -52 251 -196 315
-281 117 -155 183 -353 276 -822 48 -246 81 -349 185 -592 142 -330 164 -425
135 -602 -15 -94 -65 -250 -87 -275 -23 -26 -76 -23 -111 7 -65 54 -182 252
-216 365 -10 30 -21 120 -26 200 -7 109 -18 181 -44 287 -20 79 -72 360 -116
625 -44 266 -93 537 -109 603 -40 160 -125 426 -137 426 -5 0 -14 -12 -20 -28
-10 -23 -8 -39 7 -88 64 -199 106 -420 155 -817 l28 -226 -22 -71 -23 -70 30
-42 c61 -83 89 -210 60 -272 -9 -21 -2 -63 45 -244 31 -121 56 -239 56 -262 0
-84 -71 -246 -140 -321 -30 -33 -44 -40 -74 -40 -44 0 -91 22 -107 51 -6 11
-50 123 -99 247 -48 125 -100 252 -114 282 -34 73 -33 125 4 210 22 50 30 84
30 126 0 61 19 184 30 197 4 5 33 -8 63 -27 62 -40 75 -43 83 -22 8 20 -11 53
-63 108 -67 73 -78 125 -48 224 20 68 19 150 -5 224 -15 47 -20 90 -20 174 0
61 -14 255 -30 431 -17 176 -30 337 -30 358 l0 39 33 -20 c17 -11 65 -39 106
-62z m-3432 -27 c5 -16 8 -221 8 -458 l0 -430 -62 -180 c-34 -99 -64 -194 -68
-211 l-6 -31 62 -13 c60 -13 62 -14 85 -64 19 -41 24 -68 24 -133 0 -49 -4
-83 -10 -83 -5 0 -10 4 -10 9 0 5 -12 35 -26 67 l-27 59 -33 -70 c-18 -38 -33
-76 -33 -82 -1 -9 17 -13 58 -13 33 0 62 -4 65 -8 2 -4 -6 -34 -19 -65 l-23
-57 20 -63 c28 -87 21 -194 -20 -302 -71 -190 -151 -394 -161 -414 -13 -23
-50 -28 -82 -10 -19 10 -19 10 2 40 34 48 36 100 6 151 -14 24 -37 54 -51 67
l-26 24 1 -24 c0 -13 4 -50 8 -81 8 -68 2 -71 -56 -29 -72 52 -109 113 -124
199 -12 78 4 161 49 247 l37 70 5 -124 5 -123 35 -29 c19 -16 38 -29 42 -29
21 0 33 52 33 145 0 90 3 106 29 158 15 32 54 91 86 131 64 81 85 124 54 112
-89 -36 -189 -66 -200 -62 -25 9 -16 33 62 169 42 72 88 152 102 177 23 41 15
35 -94 -67 l-119 -111 -3 170 c-2 151 1 192 28 357 47 287 149 830 167 884 18
57 62 110 112 137 49 26 59 25 68 -7z m-282 -180 c-76 -328 -83 -366 -130
-748 -63 -518 -111 -823 -181 -1174 -61 -304 -67 -321 -161 -437 -57 -71 -69
-81 -108 -89 -25 -5 -35 -1 -57 24 -31 35 -42 114 -37 286 2 65 -2 142 -11
188 -11 62 -11 92 -2 152 17 110 43 178 152 405 144 297 166 375 180 630 11
210 32 278 170 555 105 213 111 221 152 242 24 12 44 22 45 22 1 1 -5 -25 -12
-56z m715 -86 c19 -91 43 -132 132 -224 118 -124 186 -237 543 -897 130 -240
160 -281 190 -256 13 11 2 38 -86 208 -55 107 -126 240 -156 295 -31 56 -105
200 -164 322 -119 241 -177 329 -270 401 -32 26 -56 50 -54 54 3 4 43 13 90
20 201 28 409 -34 528 -159 55 -57 68 -83 47 -96 -5 -3 -18 -19 -30 -34 l-20
-29 49 -17 c65 -21 124 -74 149 -133 12 -28 28 -101 36 -168 9 -66 22 -164 31
-219 18 -123 21 -511 3 -549 -12 -27 -70 -60 -125 -71 -36 -7 -46 -35 -13 -35
35 0 88 -27 106 -55 25 -38 21 -104 -15 -237 -16 -62 -55 -225 -86 -363 -37
-162 -66 -267 -83 -297 -14 -27 -28 -48 -31 -48 -11 0 -158 185 -207 260 -53
83 -119 220 -210 438 -62 148 -63 154 -49 183 22 42 49 56 148 75 82 16 87 19
87 42 l0 25 -114 -6 c-63 -3 -129 -2 -147 3 -37 11 -75 43 -94 81 -13 24 -195
826 -211 926 -3 23 -1 71 6 107 11 60 10 69 -9 108 -41 86 -51 271 -20 395 10
39 14 44 24 29 7 -9 18 -44 25 -79z m2437 -31 c-3 -11 -9 -66 -13 -121 -10
-144 -8 -142 -98 -150 -42 -4 -76 -10 -76 -14 0 -3 33 -29 73 -57 52 -36 71
-56 70 -70 -14 -125 -119 -704 -177 -974 -57 -270 -71 -351 -63 -372 5 -16 12
-28 15 -28 14 1 62 74 62 93 0 34 32 87 61 102 15 8 54 15 86 15 63 -1 329
-33 338 -41 2 -3 6 -16 7 -29 3 -19 -41 -62 -252 -247 -392 -346 -358 -319
-377 -300 -15 15 -13 27 20 154 20 76 39 163 43 193 l7 55 -31 -29 c-35 -32
-60 -89 -97 -221 -38 -130 -78 -197 -174 -295 -99 -101 -156 -181 -138 -199 6
-6 15 -11 20 -11 5 0 65 53 133 117 122 114 125 117 216 147 51 18 116 46 143
65 28 18 113 97 190 175 77 79 167 162 199 187 51 38 66 44 107 44 67 0 97
-32 174 -187 77 -155 100 -241 98 -363 -1 -81 -6 -105 -52 -240 -29 -82 -90
-281 -136 -440 -96 -333 -112 -378 -202 -572 l-66 -143 -39 0 -38 0 0 -95 c0
-82 -2 -96 -17 -101 -86 -26 -116 -70 -128 -185 -10 -90 -17 -99 -49 -63 -53
59 -78 118 -215 509 -199 571 -197 566 -261 705 -82 177 -97 216 -115 311 -24
129 -33 157 -81 238 -28 50 -56 119 -79 201 -47 164 -145 554 -145 578 0 10
14 37 31 61 l32 42 -31 32 c-70 74 -82 140 -59 332 9 72 19 168 22 215 20 278
88 485 196 595 37 38 49 58 49 81 0 46 47 130 94 169 54 44 114 69 201 84 39
7 124 25 189 42 105 26 121 28 134 15 18 -18 48 35 -417 -746 -315 -530 -357
-607 -343 -617 21 -17 27 -11 127 122 109 145 220 320 373 590 68 121 154 272
190 335 36 63 98 168 139 232 l74 117 30 -11 c24 -8 29 -15 26 -32z m-1634
-32 c29 -15 73 -42 98 -60 26 -19 73 -46 105 -62 53 -24 70 -27 164 -27 103 0
107 1 198 43 l92 44 44 -22 c69 -33 71 -39 28 -101 -45 -65 -139 -132 -220
-156 -34 -10 -90 -17 -138 -17 -72 0 -90 4 -145 32 -55 27 -72 43 -119 109
-120 168 -171 243 -165 243 3 0 29 -12 58 -26z m-957 -169 c8 -124 8 -124 -65
-150 -38 -13 -46 -13 -73 1 -29 15 -30 18 -24 62 8 57 42 132 97 214 l43 63 8
-40 c4 -22 10 -90 14 -150z m132 -787 l123 -543 175 -359 c126 -259 172 -362
164 -370 -18 -18 -111 39 -233 143 -164 141 -366 340 -373 367 -11 43 4 70 51
95 75 40 62 56 -50 61 -52 2 -97 7 -100 10 -17 17 -25 166 -25 473 0 273 -3
360 -16 440 -18 106 -16 139 13 174 20 24 83 50 123 51 25 0 26 -2 148 -542z
m1412 501 c0 -18 -13 -73 -29 -123 -53 -166 -80 -409 -81 -731 0 -149 -8 -165
-80 -165 -76 0 -77 6 -83 260 -3 168 -12 277 -41 497 -20 156 -36 285 -36 288
0 3 79 5 175 5 l175 0 0 -31z m-2595 -391 c-21 -104 -56 -198 -98 -262 -38
-60 -44 -46 -23 47 13 56 35 112 114 289 24 53 26 23 7 -74z m5046 -248 c53
-116 93 -210 87 -210 -5 0 -30 22 -56 48 -54 55 -102 141 -126 221 -16 56 -22
151 -8 151 4 -1 50 -95 103 -210z m-5191 -189 c-12 -49 -86 -207 -101 -217 -5
-3 -15 -1 -22 3 -11 6 1 42 57 168 63 141 71 156 74 126 2 -19 -2 -55 -8 -80z
m5368 -255 c37 -89 43 -109 31 -117 -8 -5 -17 -9 -20 -9 -7 0 -99 203 -99 218
0 11 20 22 34 18 5 -1 30 -51 54 -110z m-2747 -64 c30 -27 35 -43 115 -388 46
-197 83 -371 84 -386 0 -49 -23 -55 -299 -72 -140 -9 -255 -15 -257 -14 -1 2
15 62 37 133 42 141 88 360 115 550 18 130 28 156 77 185 46 29 90 26 128 -8z
m-1498 -241 c99 -52 176 -110 287 -218 144 -140 239 -210 384 -284 122 -63
176 -106 233 -189 47 -69 48 -80 14 -193 -16 -56 -60 -212 -96 -347 -77 -286
-163 -548 -305 -930 -64 -173 -111 -284 -126 -299 -13 -14 -25 -23 -28 -20
-17 17 -217 422 -267 539 -114 269 -238 675 -294 960 -9 47 -33 148 -52 225
-33 132 -35 147 -30 265 5 131 20 197 87 382 51 141 90 163 193 109z m-1246
-68 c13 -78 7 -281 -12 -377 -9 -49 -55 -231 -101 -405 -129 -479 -185 -721
-233 -1006 -34 -196 -48 -343 -86 -855 -23 -312 -14 -278 -117 -408 -101 -128
-160 -275 -223 -562 -91 -419 -163 -612 -307 -822 -67 -97 -109 -139 -174
-170 -53 -26 -83 -17 -107 35 -24 50 -21 88 13 148 130 234 135 256 175 914
32 513 37 564 80 748 20 82 60 265 90 406 113 525 154 639 470 1301 325 682
377 798 457 1018 23 62 34 82 48 82 15 0 21 -11 27 -47z m5650 -285 c255 -494
434 -868 528 -1108 85 -216 313 -934 374 -1177 58 -232 70 -316 101 -678 49
-579 89 -767 207 -972 71 -123 79 -175 39 -258 -31 -66 -67 -99 -99 -91 -58
14 -204 208 -295 391 -70 138 -101 220 -202 525 -127 382 -173 484 -318 715
-17 28 -38 77 -47 110 -16 65 -52 316 -85 605 -40 340 -150 957 -205 1145 -12
44 -44 139 -70 210 -123 339 -151 470 -142 660 6 130 24 235 41 235 6 0 84
-141 173 -312z m259 97 c47 -96 82 -180 79 -185 -16 -26 -37 -2 -83 94 -27 57
-55 119 -61 137 -14 43 -30 129 -24 129 2 0 43 -79 89 -175z m-962 44 c29 -23
33 -51 12 -88 -13 -24 -12 -26 33 -47 26 -12 64 -38 84 -59 68 -70 73 -88 121
-495 107 -891 119 -1037 97 -1255 -17 -173 -19 -180 -63 -230 l-40 -45 -38 49
c-21 27 -61 68 -88 91 l-50 43 30 64 c26 54 30 72 24 111 -9 67 -87 315 -103
327 -9 7 -15 62 -22 184 -8 167 -14 190 -42 191 -4 0 -25 -20 -48 -45 l-41
-45 24 -62 c13 -35 40 -98 60 -142 35 -75 36 -82 30 -160 -5 -67 -1 -107 26
-236 34 -169 60 -340 51 -340 -3 0 -34 38 -68 83 -119 158 -196 316 -227 467
-13 65 -14 160 -8 735 l8 660 27 50 c29 52 162 215 176 215 5 0 20 -9 35 -21z
m830 -134 c45 -108 83 -180 170 -315 103 -160 391 -647 529 -896 164 -295 339
-682 433 -957 135 -398 181 -733 171 -1243 -4 -239 -6 -255 -39 -399 -32 -140
-36 -150 -59 -153 -20 -2 -31 8 -62 57 -44 68 -53 100 -101 331 -49 237 -64
346 -82 616 -8 131 -24 290 -35 353 -72 425 -263 1039 -504 1628 -31 76 -126
279 -211 451 -85 172 -157 327 -161 345 -3 18 -42 95 -85 171 -43 76 -77 140
-76 141 17 13 44 22 49 17 3 -4 32 -70 63 -147z m-5178 -10 c25 -26 59 -76 76
-112 29 -62 32 -76 40 -232 4 -91 15 -294 23 -451 39 -731 40 -778 8 -904 -27
-110 -110 -244 -236 -381 l-64 -70 -117 -3 c-99 -3 -120 -1 -136 13 -24 22
-26 31 -50 288 l-21 219 67 556 c36 307 69 629 73 717 7 147 9 164 34 212 15
29 57 84 93 123 65 68 68 70 115 70 45 0 53 -4 95 -45z m4025 -122 c12 -13 15
-137 17 -692 2 -372 -1 -730 -5 -797 l-9 -120 -211 -310 c-116 -170 -235 -348
-264 -396 -30 -48 -56 -88 -59 -88 -3 0 -67 95 -143 210 -111 168 -137 214
-132 232 4 13 42 84 85 158 176 306 305 596 425 955 112 334 161 498 190 640
29 139 60 225 80 225 7 0 19 -7 26 -17z m725 -45 c13 -14 100 -252 163 -448
89 -274 146 -520 176 -757 8 -67 31 -209 50 -317 49 -277 64 -379 80 -566 24
-264 22 -289 -25 -381 -42 -82 -125 -284 -216 -527 -96 -255 -184 -395 -316
-500 -64 -51 -132 -77 -167 -65 -29 11 -112 85 -127 115 -20 39 -15 60 55 221
32 72 89 212 127 310 78 202 56 184 182 156 82 -17 105 -5 150 79 32 59 32 62
12 62 -15 0 -37 24 -81 93 -127 197 -143 330 -74 607 73 291 73 492 0 985 -29
198 -105 848 -105 904 0 5 9 20 20 34 18 22 24 24 52 16 18 -5 37 -14 44 -21z
m-5200 -84 c26 -44 26 -49 20 -142 -4 -53 -27 -293 -51 -532 -76 -731 -81
-809 -67 -953 7 -68 22 -157 32 -196 11 -40 25 -107 30 -149 32 -255 32 -253
52 -250 15 2 27 26 52 101 18 54 37 102 42 107 5 5 42 14 83 21 89 13 139 2
171 -39 32 -40 162 -269 187 -327 27 -63 46 -169 39 -210 -7 -37 15 -71 75
-115 l38 -27 -84 -5 c-80 -5 -96 -11 -154 -54 -6 -5 37 -68 62 -92 14 -13 43
-26 64 -29 34 -4 45 -1 75 25 19 17 43 49 53 72 10 22 24 40 32 40 8 0 28 -14
45 -30 26 -26 30 -36 25 -67 -3 -19 -16 -48 -29 -63 -13 -16 -69 -86 -125
-158 -56 -71 -116 -143 -133 -161 -59 -59 -118 -54 -151 12 -12 23 -79 215
-150 427 -70 212 -137 406 -148 433 -24 52 -54 64 -65 25 -17 -67 -5 -122 103
-447 111 -332 146 -416 220 -526 23 -33 41 -65 41 -70 0 -16 -136 -135 -178
-157 -68 -34 -125 -15 -172 59 -16 25 -76 152 -134 282 -155 351 -189 422
-273 569 -91 161 -119 232 -133 348 -12 98 -12 109 36 549 60 550 104 823 180
1100 44 159 171 571 186 599 8 17 66 75 75 76 1 0 14 -21 29 -46z m-506 17 c0
-7 -87 -193 -425 -911 -174 -371 -228 -541 -339 -1085 -19 -93 -47 -224 -61
-289 -60 -275 -84 -502 -95 -896 -10 -376 -30 -485 -110 -609 -35 -54 -43 -61
-63 -55 -12 3 -24 8 -25 9 -7 6 -90 614 -103 748 -23 245 9 476 111 817 110
367 324 941 429 1150 106 210 573 1035 627 1107 15 20 30 30 39 27 8 -4 15 -9
15 -13z m1270 -267 c0 -99 0 -100 30 -122 35 -26 45 -61 58 -197 5 -55 13
-109 17 -120 8 -19 7 -19 -16 2 -36 32 -54 17 -40 -33 8 -31 19 -44 53 -62 62
-32 85 -73 118 -209 66 -270 156 -487 342 -826 65 -118 70 -131 66 -175 -4
-40 -98 -262 -111 -262 -2 0 -24 30 -49 68 -25 37 -83 110 -128 162 -158 181
-210 265 -233 380 l-13 63 -62 17 c-34 9 -68 23 -77 30 -20 17 -20 89 1 177
13 55 15 92 8 193 -15 229 -12 299 14 351 19 40 21 51 11 73 -15 32 -22 33
-39 1 -19 -36 -27 -31 -39 23 -10 43 -9 51 14 96 14 27 25 56 25 65 0 8 -12
57 -27 108 -23 80 -25 99 -15 125 9 26 8 36 -8 69 -38 74 -19 157 48 210 l27
21 12 -64 c7 -34 12 -108 13 -164z m1740 156 c91 -1 197 2 237 6 59 6 77 4 97
-10 27 -17 55 -66 76 -131 7 -22 52 -132 100 -245 49 -113 103 -252 120 -310
18 -58 93 -266 167 -464 73 -197 131 -361 129 -364 -8 -8 -305 16 -480 39
-205 26 -452 35 -601 20 -66 -6 -234 -28 -373 -47 -139 -20 -255 -34 -257 -32
-5 5 84 308 136 465 43 130 56 149 129 180 29 12 125 16 572 20 l537 6 32 33
33 34 -590 0 c-480 0 -594 3 -609 14 -15 11 -17 21 -12 57 8 58 184 616 205
653 32 54 108 91 167 81 11 -2 94 -4 185 -5z m3684 -389 c36 -80 64 -146 63
-147 -2 -2 -43 58 -91 132 -49 74 -87 136 -85 138 8 6 44 24 45 23 1 -1 31
-67 68 -146z m-7178 -55 c-118 -244 -119 -245 -112 -181 6 65 36 146 84 223
34 57 108 152 117 152 2 0 -38 -87 -89 -194z m7397 -328 c59 -86 107 -161 107
-166 0 -22 -35 -23 -50 -1 -21 32 -183 346 -172 334 5 -5 57 -81 115 -167z
m-1798 -768 c68 -88 95 -153 95 -227 0 -58 -5 -73 -70 -198 -39 -74 -104 -210
-146 -302 -79 -178 -117 -251 -178 -347 l-38 -58 -93 140 c-132 197 -149 232
-141 288 7 52 35 102 259 454 184 289 200 310 237 310 23 0 38 -11 75 -60z
m-3945 -5 c34 -18 132 -137 349 -425 162 -215 179 -248 165 -307 -17 -68 -198
-327 -239 -343 -34 -13 -63 0 -113 51 -90 92 -106 187 -57 334 18 54 28 112
32 178 l6 97 -31 0 c-36 0 -34 6 -63 -155 -31 -171 -46 -176 -120 -37 -29 53
-70 123 -90 155 -67 103 -75 206 -24 307 38 74 111 150 153 159 2 1 16 -6 32
-14z m2275 -26 c80 -15 165 -23 310 -28 227 -7 246 -12 264 -78 27 -95 6 -197
-50 -247 -40 -36 -88 -54 -234 -87 -67 -15 -82 -15 -90 -4 -9 11 -38 10 -175
-7 -232 -28 -576 -19 -995 28 -182 20 -207 27 -237 67 -38 48 -77 131 -83 174
-8 50 20 101 67 125 35 18 209 45 483 73 201 21 598 13 740 -16z m2017 -305
c-3 -46 0 -57 31 -97 88 -116 89 -229 3 -527 -57 -196 -210 -596 -242 -631
-35 -39 -63 -25 -161 79 -52 53 -119 130 -150 170 -49 63 -57 80 -61 126 -5
65 -2 72 218 535 116 243 165 334 193 363 37 38 39 39 105 36 l67 -3 -3 -51z
m-1712 -329 c-119 -120 -171 -147 -325 -171 -85 -13 -146 -15 -270 -11 -169 7
-471 39 -542 58 -57 15 -116 68 -147 131 -49 97 -121 88 676 88 l703 0 -95
-95z m2595 -270 c73 -109 103 -179 201 -469 177 -522 222 -624 374 -841 142
-205 149 -216 156 -267 6 -45 5 -48 -40 -96 -83 -89 -212 -139 -334 -130 -53
4 -86 17 -244 97 -270 138 -525 309 -671 450 -70 67 -197 227 -197 246 0 4 42
52 94 105 109 114 204 252 275 400 45 94 64 146 132 368 11 35 43 115 71 178
l51 115 39 -38 c22 -21 64 -74 93 -118z m-6385 33 c11 -18 55 -100 97 -183 41
-82 166 -321 276 -529 143 -271 201 -392 205 -422 4 -40 0 -49 -54 -125 -231
-321 -576 -553 -930 -624 -95 -19 -162 -11 -250 29 -53 25 -139 96 -175 147
l-19 27 109 109 c237 235 337 463 466 1053 54 248 76 312 152 438 74 123 90
133 123 80z"/>
<path d="M3713 9435 c-46 -33 -20 -79 38 -69 126 21 139 25 139 44 0 25 -5 27
-85 35 -56 5 -74 3 -92 -10z"/>
<path d="M4750 8622 c0 -4 16 -46 36 -92 20 -47 40 -96 46 -110 10 -24 11 -24
18 -5 13 32 11 103 -4 139 -7 18 -26 42 -41 54 -28 22 -55 29 -55 14z"/>
<path d="M4584 8357 c-5 -14 70 -190 83 -194 5 -2 17 2 26 9 16 12 15 20 -25
106 -31 66 -48 92 -61 92 -10 0 -20 -6 -23 -13z"/>
<path d="M5998 4649 l-35 -101 24 -9 c13 -5 28 -9 32 -9 7 0 64 202 58 206 -1
1 -12 4 -23 8 -19 6 -25 -3 -56 -95z"/>
<path d="M5727 4534 c-2 -14 0 -27 7 -30 21 -7 180 -43 182 -41 1 1 4 15 6 31
3 29 2 30 -77 48 -106 23 -112 23 -118 -8z"/>
<path d="M5932 4385 c-41 -46 -48 -88 -25 -150 14 -37 24 -51 41 -53 22 -3 22
-2 22 117 0 67 -2 121 -4 121 -2 0 -18 -16 -34 -35z"/>
<path d="M5450 3655 c-74 -7 -140 -14 -146 -14 -6 -1 -9 -14 -6 -31 l4 -30
152 1 c83 1 162 4 175 8 59 16 51 75 -10 77 -19 1 -95 -4 -169 -11z"/>
<path d="M2980 4565 c0 -8 81 -328 84 -331 1 -1 11 -5 24 -8 20 -7 22 -4 22
26 0 49 30 91 81 112 93 40 149 68 149 76 0 4 -27 6 -59 3 -98 -9 -140 2 -205
55 -82 66 -96 76 -96 67z"/>
<path d="M3078 4016 c-39 -80 -29 -148 29 -208 27 -28 63 -38 63 -17 0 19 -62
243 -70 252 -3 4 -14 -8 -22 -27z"/>
<path d="M3210 3636 c0 -31 63 -245 71 -240 4 2 13 30 19 62 7 31 19 73 27 92
26 64 12 82 -74 95 -35 6 -43 4 -43 -9z"/>
<path d="M3588 3613 c-75 -4 -78 -5 -78 -28 0 -25 0 -25 100 -25 l100 0 0 30
c0 25 -4 30 -22 28 -13 -1 -58 -4 -100 -5z"/>
<path d="M3315 3102 c-7 -56 8 -134 37 -180 19 -31 84 -71 116 -72 7 0 -20 64
-63 150 -41 83 -77 150 -79 150 -2 0 -7 -21 -11 -48z"/>
<path d="M2740 3314 l0 -306 28 7 c15 3 30 9 34 13 6 7 58 510 58 565 0 26 -1
27 -60 27 l-60 0 0 -306z"/>
<path d="M933 12450 c-25 -10 -56 -87 -73 -179 -10 -54 -9 -66 4 -80 21 -23
114 -66 123 -57 4 3 1 27 -5 53 -7 25 -11 47 -9 49 2 3 22 -2 44 -10 99 -35
205 -30 320 16 47 19 59 28 61 48 2 21 -4 28 -40 42 -26 10 -68 16 -108 16
-74 -2 -108 13 -181 73 -48 40 -87 49 -136 29z"/>
<path d="M1489 12289 c-16 -17 -26 -35 -23 -40 3 -5 22 -18 43 -29 37 -18 38
-18 68 0 17 10 34 23 37 28 6 10 -69 72 -87 72 -5 0 -22 -14 -38 -31z"/>
<path d="M1656 12264 c-11 -28 -7 -33 55 -65 67 -33 83 -30 77 16 -2 24 -11
31 -53 46 -63 22 -72 23 -79 3z"/>
<path d="M1865 12165 c-9 -77 -3 -87 62 -109 43 -15 47 -15 59 2 10 13 10 21
1 34 -54 76 -103 137 -109 138 -3 0 -10 -29 -13 -65z"/>
<path d="M2102 8354 c-5 -11 -33 -74 -62 -142 -42 -97 -50 -126 -41 -135 10
-9 20 -3 48 28 51 58 83 130 83 190 0 60 -13 87 -28 59z"/>
<path d="M8346 6631 l-27 -29 28 -19 c66 -47 86 -53 121 -36 50 24 44 57 -18
88 -62 32 -70 31 -104 -4z"/>
<path d="M8835 6591 c-55 -10 -114 -25 -132 -34 -29 -15 -63 -52 -63 -68 0
-13 51 -27 125 -34 101 -10 125 -30 125 -105 0 -55 5 -58 51 -34 60 30 81 120
58 237 -14 67 -7 65 -164 38z"/>
<path d="M98 6441 c-84 -53 -124 -179 -75 -236 l22 -26 133 55 c160 67 151 61
145 87 -7 25 -40 39 -118 47 l-59 7 3 48 c1 26 1 47 -1 47 -2 0 -25 -13 -50
-29z"/>
<path d="M7304 6004 c73 -199 90 -236 99 -213 13 34 0 127 -23 163 -10 17 -33
40 -51 50 -32 19 -32 19 -25 0z"/>
</g>
</svg>
