<svg width="946" height="493" viewBox="0 0 946 493" fill="none" xmlns="http://www.w3.org/2000/svg">
<path fill-rule="evenodd" clip-rule="evenodd" d="M417.005 0.702165C393.117 2.71517 368.994 6.79126 348.505 12.2763C336.408 15.5153 337.949 14.9812 292.505 31.6732C271.33 39.4502 246.13 48.6632 236.505 52.1472C226.88 55.6302 205.055 63.6412 188.005 69.9502C141.876 87.0182 94.879 104.287 78.505 110.187C43.304 122.871 37.639 125.07 31.505 128.43C22.741 133.231 11.981 144.263 7.372 153.174C-0.452003 168.301 0.00500026 162.776 0.00500026 242.174V313.174L2.684 320.509C7.863 334.684 16.655 346.216 28.773 354.726C32.604 357.417 38.048 360.484 40.872 361.542C43.695 362.6 58.944 369.138 74.758 376.071C179.302 421.898 281.058 461.035 332.091 475.045C364.189 483.857 408.578 490.045 457.35 492.509C486.011 493.957 541.256 489.487 579.687 482.61C601.425 478.721 641.936 467.151 668.382 457.28C672.024 455.92 682.655 452.036 692.005 448.649C701.355 445.261 713.055 440.909 718.005 438.978C766.2 420.172 810.021 402.157 852.795 383.565C865.56 378.016 883.43 370.32 892.505 366.462C901.58 362.605 912.026 357.451 915.719 355.009C928.939 346.266 939.394 331.247 943.537 315.051C945.396 307.779 945.505 303.73 945.505 241.674C945.505 167.668 945.538 168.045 937.769 153.342C933.352 144.982 922.619 133.75 914.471 128.961C911.465 127.194 889.43 118.585 865.505 109.83C841.58 101.075 817.73 92.3162 812.505 90.3642C807.28 88.4122 793.78 83.4533 782.505 79.3443C771.23 75.2343 742.205 64.6002 718.005 55.7132C637.599 26.1842 609.074 15.8792 601.922 13.7742C586.837 9.33319 564.617 4.92926 542.505 1.99526C529.199 0.229256 434.219 -0.748835 417.005 0.702165ZM530.283 35.2002C566.636 38.9682 585.226 43.2992 620.505 56.2202C647.105 65.9622 678.551 77.4723 716.255 91.2663C758.506 106.723 777.878 113.824 805.505 123.983C821.18 129.746 847.055 139.252 863.005 145.107C878.955 150.962 893.268 156.25 894.813 156.858C899.061 158.532 906.374 166.15 908.825 171.454C910.995 176.152 911.005 176.478 911.005 241.695V307.217L907.705 313.919C902.014 325.478 901.807 325.593 832.868 355.194C815.524 362.641 796.534 370.687 790.669 373.075C784.804 375.463 768.856 381.976 755.228 387.548C687.129 415.396 626.605 436.911 591.976 445.58C566.019 452.079 505.585 458.673 471.982 458.674C439.299 458.674 380.243 452.184 353.505 445.654C302.865 433.286 206.265 396.37 76.005 339.609C69.405 336.733 61.08 333.124 57.505 331.589C47.242 327.184 41.275 321.984 37.36 314.033L34.005 307.218L33.693 244.696C33.478 201.455 33.724 180.584 34.494 177.019C35.914 170.438 40.233 163.927 45.858 159.887C48.69 157.854 61.204 152.707 80.643 145.583C97.342 139.463 125.63 129.075 143.505 122.499C161.38 115.922 181.405 108.582 188.005 106.187C194.605 103.791 212.38 97.2583 227.505 91.6673C242.63 86.0773 261.08 79.3262 268.505 76.6662C275.93 74.0052 294.38 67.2542 309.505 61.6652C324.63 56.0752 340.148 50.4062 343.989 49.0672C360.039 43.4752 386.88 38.0873 412.802 35.2553C431.185 33.2463 511.075 33.2092 530.283 35.2002ZM303.834 173.552C290.115 178.639 280.631 189.607 274.761 207.174C272.281 214.593 272.087 216.408 272.087 232.174C272.087 247.978 272.277 249.742 274.785 257.252C279.635 271.772 288.198 282.309 299.385 287.523C304.15 289.744 306.374 290.14 314.005 290.128C324.651 290.112 329.812 288.198 336.951 281.617C339.478 279.287 341.691 277.56 341.869 277.778C342.047 277.996 342.602 280.199 343.103 282.674L344.014 287.174H351.009H358.005V256.674V226.174L338.255 225.903L318.505 225.632V235.153V244.674H328.005H337.505V247.496C337.505 256.385 330.324 266.574 322.596 268.652C311.051 271.755 301.006 264.498 296.446 249.759C294.12 242.241 293.605 224.629 295.467 216.333C298.77 201.624 306.33 193.674 317.015 193.674C324.876 193.674 331.601 198.892 333.933 206.801L335.222 211.174L346.007 211.459L356.792 211.745L356.18 206.574C354.766 194.635 344.868 180.714 333.819 175.124C328.903 172.637 326.748 172.186 318.55 171.931C311.062 171.698 307.89 172.047 303.834 173.552ZM400.888 172.571C391.403 174.993 383.181 181.527 378.735 190.174C376.793 193.949 376.054 197.156 375.717 203.265C374.912 217.869 379.779 227.744 390.442 233.138C392.951 234.408 401.98 237.838 410.505 240.761C428.654 246.983 431.507 249.033 431.501 255.847C431.494 264.723 424.969 270.039 414.209 269.937C407.04 269.87 399.89 266.497 397.219 261.923C396.202 260.183 394.839 256.603 394.188 253.967L393.005 249.174H382.505H372.005L371.69 252.445C371.517 254.244 372.121 258.28 373.032 261.415C377.576 277.045 385.413 284.771 400.769 288.76C422.226 294.334 442.466 286.771 450.508 270.174C452.378 266.315 453.022 263.087 453.332 256.028C453.825 244.832 452.071 238.734 446.556 232.47C441.351 226.556 435.66 223.701 418.005 218.147C409.755 215.552 401.784 212.565 400.293 211.51C395.017 207.778 396.043 197.989 402.127 194.002C406.556 191.1 417.11 191.461 421.804 194.674C425.535 197.228 427.955 201.026 428.972 205.924L429.543 208.674H439.465C444.922 208.674 449.624 208.29 449.914 207.821C450.924 206.187 448.408 194.417 446.065 189.812C442.893 183.581 437.315 178.218 430.573 174.917C425.718 172.54 423.661 172.165 414.505 171.983C408.73 171.868 402.602 172.133 400.888 172.571ZM76.172 174.341C75.805 174.707 75.505 200.357 75.505 231.341V287.674H103.827C137.165 287.674 139.001 287.316 147.048 279.248C154.078 272.199 157.01 263.255 156.256 251.162C155.603 240.697 152.2 233.884 145.223 229.076L140.651 225.925L144.011 222.668C155.627 211.41 153.933 187.673 140.876 178.726C134.565 174.402 128.96 173.674 101.954 173.674C88.14 173.674 76.538 173.974 76.172 174.341ZM174.172 174.341C173.091 175.421 173.424 249.583 174.54 256.461C176.29 267.242 179.252 273.581 185.426 279.755C193.001 287.33 200.793 290.063 215.005 290.128C233.806 290.214 244.502 284.583 251.324 271.006C256.179 261.344 256.505 257.763 256.505 214.091V173.606L245.755 173.89L235.005 174.174L234.505 215.174C233.965 259.494 234.016 259.082 228.35 264.357C220.882 271.311 205.221 269.628 199.829 261.292C196.123 255.562 195.505 248.23 195.505 209.99V173.674H185.172C179.488 173.674 174.538 173.974 174.172 174.341ZM468.172 174.341C467.805 174.707 467.505 200.357 467.505 231.341V287.674H478.487H489.469L489.737 263.424L490.005 239.174H509.005H528.005L528.273 263.424L528.541 287.674H539.531H550.522L550.263 230.924L550.005 174.174L539.275 173.89L528.545 173.607L528.275 194.89L528.005 216.174H509.005H490.005L489.735 194.924L489.465 173.674H479.152C473.479 173.674 468.538 173.974 468.172 174.341ZM571.453 174.058C571.207 174.305 571.125 199.969 571.271 231.09L571.538 287.674H582.53H593.522L593.263 230.924L593.005 174.174L582.453 173.892C576.65 173.737 571.7 173.812 571.453 174.058ZM615.505 230.662V287.674H653.005H690.505V277.174V266.674L665.755 266.559C652.143 266.495 640.33 266.383 639.505 266.309C638.266 266.197 637.957 263.783 637.727 252.424L637.449 238.674H661.513H685.577L685.291 228.924L685.005 219.174L661.223 218.906L637.442 218.638L637.723 206.906L638.005 195.174L663.74 194.907L689.475 194.64L690.066 192.287C690.391 190.993 690.442 186.388 690.179 182.054L689.701 174.174L652.603 173.912L615.505 173.65V230.662ZM707.505 230.64V287.674H741.505H775.505V276.674V265.674H752.515H729.525L729.265 219.924L729.005 174.174L718.255 173.89L707.505 173.606V230.64ZM786.172 174.341C785.805 174.707 785.505 200.384 785.505 231.399V287.792L812.78 287.483L840.056 287.174L846.774 283.865C854.602 280.008 861.193 272.744 865.547 263.174C869.889 253.633 870.98 246.763 870.947 229.174C870.92 214.377 870.713 212.586 868.193 205.346C862.035 187.661 851.595 177.536 836.584 174.689C830.698 173.573 787.24 173.273 786.172 174.341ZM125.182 196.27C128.593 198.801 130.85 204.97 130.012 209.468C129.674 211.28 128.109 214.205 126.534 215.968L123.67 219.174L110.588 219.524L97.505 219.875V207.441C97.505 200.603 97.843 194.665 98.255 194.248C98.667 193.83 104.26 193.642 110.682 193.831C120.64 194.124 122.774 194.482 125.182 196.27ZM836.089 199.213C839.982 201.619 841.688 203.596 844.287 208.713C852.25 224.388 849.415 252.399 838.935 261.601C834.862 265.178 828.231 266.674 816.456 266.674H807.505V231.09V195.507L819.339 195.84C830.491 196.155 831.455 196.349 836.089 199.213ZM128.139 239.604C133.764 243.31 136.031 255.17 132.224 260.979C128.621 266.479 126.3 267.174 111.55 267.174H98.005L97.728 252.33L97.45 237.485L111.728 237.842C121.805 238.094 126.633 238.612 128.139 239.604ZM303.563 307.767C294.907 309.459 289.109 316.975 290.913 324.165C292.209 329.325 296.461 332.266 307.582 335.692C313.314 337.458 318.336 339.414 318.74 340.038C320.233 342.346 319.432 345.587 316.87 347.601C311.796 351.593 301.883 349.415 299.556 343.797C298.39 340.981 297.837 340.674 293.943 340.674C291.567 340.674 289.414 341.013 289.158 341.427C288.21 342.96 291.393 349.846 294.153 352.232C297.843 355.423 302.449 356.667 310.505 356.646C321.422 356.619 328.205 352.328 329.213 344.812C330.601 334.467 326.756 331.193 306.874 325.788C302.019 324.468 300.227 322.651 300.678 319.504C301.486 313.868 312.101 313.268 316.578 318.606C318.694 321.13 319.892 321.674 323.328 321.674C327.101 321.674 327.505 321.436 327.505 319.209C327.505 315.949 322.221 310.045 318.205 308.819C312.86 307.188 308.229 306.855 303.563 307.767ZM416.005 307.346C411.075 308.431 407.705 310.269 403.772 314.021C398.251 319.286 396.087 325.596 396.73 334.558C397.742 348.654 405.991 356.754 419.505 356.922C429.402 357.045 437.379 351.722 440.265 343.068C441.605 339.048 440.91 338.241 435.773 337.859C431.655 337.552 431.497 337.653 429.899 341.647C426.306 350.628 414.52 351.258 409.23 342.752C407.465 339.914 407.013 337.718 407.044 332.134C407.102 321.496 411.503 315.674 419.487 315.674C424.04 315.674 427.444 317.404 429.296 320.659C430.818 323.332 431.525 323.662 435.755 323.668C439.616 323.673 440.504 323.346 440.501 321.924C440.496 319.24 437.055 314.195 433.252 311.295C430.464 309.168 421.171 306.307 418.619 306.79C418.281 306.854 417.105 307.104 416.005 307.346ZM467.005 307.35C457.947 309.449 451.896 314.168 448.736 321.601C447.866 323.646 447.207 328.207 447.194 332.264C447.159 343.355 452.12 351.511 461.223 355.326C465.883 357.278 476.193 356.999 481.061 354.788C490.019 350.719 495.364 340.288 494.212 329.125C492.886 316.28 485.781 309.303 472.005 307.319C470.355 307.082 468.105 307.096 467.005 307.35ZM659.652 307.752C651.746 309.301 646.99 312.944 643.429 320.176C640.541 326.043 640.282 327.314 640.721 333.454C641.784 348.312 650.207 356.603 664.287 356.652C678.928 356.703 687.732 347.487 687.671 332.172C687.637 323.44 685.522 317.774 680.724 313.562C674.645 308.224 667.415 306.23 659.652 307.752ZM246.682 309.138C245.907 310.324 245.442 351.255 246.173 353.946C246.614 355.573 248.147 355.696 264.829 355.446L283.005 355.174V351.674V348.174L269.708 347.895L256.411 347.615L256.708 341.395L257.005 335.174L268.755 334.892L280.505 334.611V331.142V327.674H268.505H256.505V322.204V316.734L269.255 316.454L282.005 316.174L282.315 312.424L282.626 308.674L267.815 308.593C259.67 308.548 251.735 308.419 250.182 308.307C248.629 308.194 247.054 308.568 246.682 309.138ZM503.456 309.766C502.933 310.743 502.505 321.472 502.505 333.608V355.674H507.505H512.505V340.174C512.505 331.649 512.875 324.674 513.328 324.674C513.781 324.674 518.344 331.67 523.469 340.221L532.788 355.769L537.896 355.471L543.005 355.174L543.273 331.924L543.542 308.674H538.523H533.505V324.296C533.505 342.359 533.515 342.353 525.981 329.416C517.905 315.548 514.203 309.605 513.288 309.04C512.806 308.742 510.611 308.384 508.41 308.244C505.422 308.054 504.166 308.44 503.456 309.766ZM553.255 308.479L548.505 308.784V312.685V316.586L555.755 316.88L563.005 317.174L563.277 336.424L563.548 355.674H568.505H573.462L573.733 336.424L574.005 317.174L581.31 316.879L588.616 316.584L588.31 312.379L588.005 308.174H573.005C564.755 308.174 555.867 308.311 553.255 308.479ZM699.755 308.48L696.505 308.801V332.188V355.576L712.019 355.875C720.552 356.039 727.977 356.024 728.519 355.841C729.061 355.657 729.505 353.745 729.505 351.591V347.674H718.005H706.505V328.291C706.505 306.817 706.833 307.781 699.755 308.48ZM198.505 332.101C198.505 358.075 198.105 356.659 205.216 355.836L208.428 355.464L208.716 347.319L209.005 339.174L218.174 338.529C228.418 337.807 232.168 336.201 235.079 331.288C237.596 327.041 237.461 318.449 234.821 314.846C231.039 309.685 227.355 308.677 212.255 308.676L198.505 308.674V332.101ZM332.505 312.63V316.586L339.755 316.88L347.005 317.174L347.278 336.129C347.428 346.554 347.97 355.343 348.482 355.66C348.994 355.977 351.234 356.062 353.459 355.85L357.505 355.464V336.069V316.674H365.005H372.505V312.674V308.674H352.505H332.505V312.63ZM592.505 332.174V355.674H597.505H602.505V346.693C602.505 337.904 602.559 337.698 605.051 337.073C606.452 336.722 610.126 336.644 613.217 336.9C620.427 337.498 622.027 339.378 622.988 348.386C623.387 352.119 624.083 355.405 624.535 355.687C624.987 355.969 627.336 356.043 629.755 355.85L634.154 355.501L632.891 346.956C631.887 340.169 631.096 337.857 629.046 335.716L626.464 333.021L628.622 331.098C635.532 324.94 634.011 313.455 625.833 310.038C623.568 309.091 617.968 308.674 607.537 308.674H592.505V332.174ZM477.89 317.762C481.947 320.953 483.654 325.162 483.672 332.02C483.693 339.594 482.591 342.582 478.514 346.013C472.276 351.262 462.08 348.687 458.892 341.057C457.266 337.167 457.067 327.957 458.525 324.122C459.086 322.646 460.933 320.142 462.631 318.557C466.575 314.872 473.741 314.499 477.89 317.762ZM618.484 316.98C623.27 318.623 624.688 322.613 621.841 326.426C619.888 329.042 619.386 329.174 611.397 329.174H603.005L602.698 323.793C602.529 320.834 602.628 317.796 602.917 317.043C603.58 315.314 613.511 315.274 618.484 316.98ZM671.477 317.654C675.401 320.448 677.505 325.517 677.505 332.174C677.505 342.497 672.739 348.674 664.774 348.674C655.819 348.674 651.115 342.937 651.202 332.12C651.256 325.358 653.076 320.943 657.12 317.762C660.635 314.998 667.672 314.945 671.477 317.654ZM225.432 319.309C228.164 322.782 228.048 325.222 225.005 328.265C222.755 330.515 221.828 330.736 215.755 330.47L209.005 330.174L208.698 324.793C208.246 316.855 208.417 316.674 216.401 316.674C222.728 316.674 223.548 316.913 225.432 319.309ZM323.999 395.321C320.977 401.727 318.505 407.561 318.505 408.286C318.505 409.852 322.157 412.007 323.454 411.206C323.953 410.897 325.813 407.495 327.587 403.647C329.361 399.798 330.954 396.79 331.127 396.962C331.299 397.135 331.915 401.528 332.496 406.725C333.249 413.468 334.029 416.532 335.219 417.424C338.927 420.203 340.097 418.971 345.974 406.112C349.132 399.203 351.555 393.414 351.36 393.248C350.69 392.676 346.637 390.674 346.149 390.674C345.881 390.674 344.215 393.813 342.447 397.649C340.679 401.485 338.897 404.417 338.488 404.164C338.079 403.911 337.425 399.869 337.034 395.182C336.443 388.089 335.967 386.411 334.192 385.167C333.019 384.346 331.482 383.674 330.776 383.674C330.07 383.674 327.02 388.915 323.999 395.321ZM591.673 385.549C590.919 386.027 590.099 389.058 589.784 392.534C589.478 395.911 589.013 398.674 588.75 398.674C588.488 398.674 586.12 397.093 583.488 395.161C579.463 392.207 578.305 391.8 576.201 392.6C574.825 393.123 573.425 393.994 573.091 394.535C572.756 395.077 576.138 398.097 580.607 401.246C586.488 405.39 589.143 407.966 590.223 410.573C592.515 416.11 593.269 416.738 596.081 415.457C598.93 414.159 599.093 412.711 596.87 408.413C595.56 405.88 595.357 403.534 595.85 396.598C596.188 391.839 596.746 387.209 597.091 386.309C597.564 385.079 597.136 384.678 595.362 384.689C594.066 384.698 592.406 385.085 591.673 385.549ZM557.755 398.426C550.024 400.565 548.505 401.314 548.505 402.986C548.505 405.594 554.504 426.909 555.561 428.059C556.363 428.931 560.489 428.138 571.255 425.042C575.094 423.938 576.505 423.046 576.505 421.725C576.505 418.318 574.36 417.704 568.323 419.384C562.002 421.143 559.505 420.683 559.505 417.757C559.505 416.191 560.759 415.426 565.505 414.094C570.597 412.665 571.505 412.064 571.505 410.126C571.505 407.067 569.933 406.696 564.155 408.39C558.645 410.004 556.505 409.575 556.505 406.854C556.505 405.383 557.931 404.585 563.017 403.208C566.598 402.239 569.695 401.16 569.899 400.81C570.452 399.862 568.691 395.659 567.787 395.77C567.357 395.824 562.842 397.019 557.755 398.426ZM354.502 408.924C352.579 415.661 351.005 421.803 351.005 422.572C351.005 423.476 354.006 424.795 359.505 426.306C370.033 429.2 372.119 429.258 372.794 426.675C373.42 424.281 372.824 423.864 365.596 421.636C360.851 420.173 359.957 419.516 359.689 417.293C359.314 414.192 360.481 414.026 368.195 416.079C373.907 417.6 374.505 417.409 374.505 414.059C374.505 412.124 373.593 411.522 368.505 410.094C364.003 408.831 362.505 407.959 362.505 406.601C362.505 403.863 363.67 403.634 369.585 405.208C377.618 407.346 378.697 407.187 378.321 403.924C378.031 401.396 377.36 400.999 370.005 399.006C357.409 395.593 358.509 394.889 354.502 408.924ZM383.582 408.424C383.624 411.586 384.186 418.224 384.832 423.174L386.005 432.174H389.5C392.895 432.174 393.083 431.965 396 424.948C397.653 420.974 399.278 417.711 399.612 417.698C399.946 417.685 400.468 421.309 400.773 425.751C401.077 430.194 401.512 434.014 401.739 434.241C401.965 434.468 403.474 434.918 405.091 435.241C407.989 435.821 408.106 435.668 413.343 424.502C416.265 418.271 418.735 412.049 418.83 410.674C418.98 408.53 418.582 408.174 416.041 408.174C413.261 408.174 412.897 408.655 410.138 415.985C406.756 424.971 405.552 424.63 405.505 414.674C405.472 407.728 405.007 406.398 402.255 405.382C399.129 404.229 397.767 405.681 394.881 413.24C393.32 417.329 391.697 420.674 391.274 420.674C390.851 420.674 390.505 417.778 390.505 414.239C390.505 405.785 389.301 402.674 386.03 402.674C383.614 402.674 383.508 402.922 383.582 408.424ZM526.834 405.132C521.961 407.251 519.978 412.952 522.484 417.635C523.639 419.792 528.52 421.674 532.963 421.674C539.435 421.674 541.775 426.815 535.967 428.273C534.1 428.741 532.515 428.318 530.465 426.803C525.483 423.119 521.033 424.555 523.447 429.067C525.261 432.455 528.314 433.867 533.733 433.825C543.34 433.751 548.68 427.542 545.375 420.289C544.079 417.444 541.105 416.1 534.005 415.149C527.733 414.309 527.259 414.002 528.537 411.613C529.82 409.217 535.019 408.983 536.296 411.264C537.596 413.587 541.929 412.705 542.309 410.039C543.037 404.94 533.921 402.049 526.834 405.132ZM493.005 408.387C491.905 408.652 490.711 409.162 490.352 409.521C489.611 410.262 492.069 436.571 492.963 437.465C493.282 437.785 494.773 437.612 496.275 437.081C498.753 436.205 499.005 435.657 499.005 431.145V426.174L503.209 425.869L507.412 425.564L508.807 430.369C510.068 434.713 510.514 435.205 513.453 435.495L516.705 435.816L515.987 431.495C515.592 429.118 514.633 425.932 513.856 424.415C512.831 422.412 512.727 421.129 513.475 419.731C515.085 416.721 514.694 413.184 512.432 410.309C510.497 407.849 509.851 407.682 502.682 407.79C498.46 407.854 494.105 408.122 493.005 408.387ZM447.079 415.867C446.75 419.336 446.374 424.424 446.243 427.174C446.025 431.752 445.798 432.174 443.55 432.174C441.754 432.174 440.938 431.503 440.511 429.674C440.092 427.886 439.154 427.084 437.215 426.858C434.71 426.565 434.505 426.814 434.505 430.153C434.505 435.221 438.101 438.674 443.378 438.674C451.756 438.674 453.125 436.338 453.635 421.174L454.005 410.174L450.841 409.867L447.676 409.56L447.079 415.867ZM461.942 410.977C461.667 411.693 461.569 418.106 461.724 425.227L462.005 438.174H473.005H484.005V435.674C484.005 433.274 483.705 433.154 476.505 432.674C469.305 432.194 469.005 432.074 469.005 429.674C469.005 427.315 469.372 427.146 475.505 426.674C481.638 426.202 482.005 426.033 482.005 423.674C482.005 421.283 481.709 421.161 475.255 420.878C468.835 420.597 468.505 420.462 468.505 418.128C468.505 415.799 468.806 415.674 474.423 415.674C481.915 415.674 483.505 415.042 483.505 412.067C483.505 409.694 483.415 409.674 472.974 409.674C465.243 409.674 462.309 410.02 461.942 410.977ZM507.005 416.61C507.005 418.538 506.301 419.229 503.633 419.921C499.037 421.112 497.505 420.294 497.505 416.651C497.505 413.593 497.549 413.567 502.255 413.869C506.539 414.144 507.005 414.413 507.005 416.61Z" fill="white"/>
</svg>
