<?xml version="1.0" encoding="UTF-8"?>
<svg width="700pt" height="700pt" version="1.1" viewBox="0 0 700 700" xmlns="http://www.w3.org/2000/svg" xmlns:xlink="http://www.w3.org/1999/xlink">
 <defs>
  <symbol id="l" overflow="visible">
   <path d="m29.312-1.75c-1.5117 0.78125-3.0898 1.3711-4.7344 1.7656-1.6367 0.40625-3.3398 0.60938-5.1094 0.60938-5.3125 0-9.5273-1.4844-12.641-4.4531-3.1055-2.9688-4.6562-7-4.6562-12.094s1.5508-9.125 4.6562-12.094c3.1133-2.9688 7.3281-4.4531 12.641-4.4531 1.7695 0 3.4727 0.19922 5.1094 0.59375 1.6445 0.39844 3.2227 0.99219 4.7344 1.7812v6.5938c-1.5312-1.0391-3.0391-1.8008-4.5156-2.2812-1.4805-0.48828-3.0391-0.73438-4.6719-0.73438-2.9375 0-5.2461 0.94531-6.9219 2.8281-1.6797 1.875-2.5156 4.4648-2.5156 7.7656 0 3.293 0.83594 5.8828 2.5156 7.7656 1.6758 1.875 3.9844 2.8125 6.9219 2.8125 1.6328 0 3.1914-0.23828 4.6719-0.71875 1.4766-0.48828 2.9844-1.2539 4.5156-2.2969z"/>
  </symbol>
  <symbol id="d" overflow="visible">
   <path d="m21.453-17.406c-0.67969-0.3125-1.3516-0.53906-2.0156-0.6875-0.65625-0.15625-1.3203-0.23438-1.9844-0.23438-1.9688 0-3.4844 0.63281-4.5469 1.8906-1.0547 1.2617-1.5781 3.0703-1.5781 5.4219v11.016h-7.6562v-23.922h7.6562v3.9219c0.97656-1.5625 2.1016-2.7031 3.375-3.4219 1.2812-0.71875 2.8125-1.0781 4.5938-1.0781 0.25 0 0.52344 0.011719 0.82812 0.03125 0.30078 0.023438 0.73438 0.070312 1.2969 0.14062z"/>
  </symbol>
  <symbol id="c" overflow="visible">
   <path d="m27.562-12.031v2.1875h-17.891c0.1875 1.793 0.83203 3.1367 1.9375 4.0312 1.1133 0.89844 2.6719 1.3438 4.6719 1.3438 1.6016 0 3.25-0.23438 4.9375-0.70312 1.6875-0.47656 3.4219-1.2031 5.2031-2.1719v5.8906c-1.8047 0.6875-3.6094 1.2031-5.4219 1.5469-1.8125 0.35156-3.6211 0.53125-5.4219 0.53125-4.3359 0-7.7031-1.0977-10.109-3.2969-2.3984-2.207-3.5938-5.2969-3.5938-9.2656 0-3.9062 1.1758-6.9727 3.5312-9.2031 2.3633-2.2383 5.6094-3.3594 9.7344-3.3594 3.7578 0 6.7695 1.1367 9.0312 3.4062 2.2578 2.2617 3.3906 5.2812 3.3906 9.0625zm-7.8594-2.5312c0-1.457-0.42969-2.6289-1.2812-3.5156-0.84375-0.89453-1.9492-1.3438-3.3125-1.3438-1.4922 0-2.6992 0.41797-3.625 1.25-0.91797 0.83594-1.4922 2.0391-1.7188 3.6094z"/>
  </symbol>
  <symbol id="a" overflow="visible">
   <path d="m14.391-10.766c-1.5938 0-2.793 0.27344-3.5938 0.8125-0.80469 0.54297-1.2031 1.3398-1.2031 2.3906 0 0.96875 0.32031 1.7305 0.96875 2.2812 0.64453 0.54297 1.5469 0.8125 2.7031 0.8125 1.4375 0 2.6445-0.51562 3.625-1.5469 0.98828-1.0312 1.4844-2.3203 1.4844-3.875v-0.875zm11.688-2.8906v13.656h-7.7031v-3.5469c-1.0312 1.4492-2.1875 2.5078-3.4688 3.1719s-2.8398 1-4.6719 1c-2.4805 0-4.4961-0.72266-6.0469-2.1719-1.543-1.4453-2.3125-3.3203-2.3125-5.625 0-2.8125 0.96094-4.8672 2.8906-6.1719 1.9375-1.3125 4.9688-1.9688 9.0938-1.9688h4.5156v-0.60938c0-1.207-0.48047-2.0938-1.4375-2.6562-0.94922-0.5625-2.4375-0.84375-4.4688-0.84375-1.6367 0-3.1562 0.16797-4.5625 0.5-1.4062 0.32422-2.7188 0.8125-3.9375 1.4688v-5.8281c1.6445-0.40625 3.2891-0.70703 4.9375-0.90625 1.6562-0.20703 3.3047-0.3125 4.9531-0.3125 4.3203 0 7.4375 0.85547 9.3438 2.5625 1.9141 1.6992 2.875 4.4609 2.875 8.2812z"/>
  </symbol>
  <symbol id="b" overflow="visible">
   <path d="m12.031-30.719v6.7969h7.875v5.4688h-7.875v10.141c0 1.1172 0.21875 1.8711 0.65625 2.2656 0.4375 0.38672 1.3125 0.57812 2.625 0.57812h3.9375v5.4688h-6.5625c-3.0234 0-5.1641-0.62891-6.4219-1.8906-1.2617-1.2578-1.8906-3.3984-1.8906-6.4219v-10.141h-3.7969v-5.4688h3.7969v-6.7969z"/>
  </symbol>
  <symbol id="i" overflow="visible">
   <path d="m19.953-20.422v-12.812h7.6875v33.234h-7.6875v-3.4531c-1.0547 1.4062-2.2148 2.4375-3.4844 3.0938-1.2734 0.65625-2.7422 0.98438-4.4062 0.98438-2.9492 0-5.3711-1.1719-7.2656-3.5156-1.8867-2.3438-2.8281-5.3594-2.8281-9.0469s0.94141-6.7031 2.8281-9.0469c1.8945-2.3438 4.3164-3.5156 7.2656-3.5156 1.6562 0 3.1172 0.33594 4.3906 1 1.2812 0.65625 2.4453 1.6836 3.5 3.0781zm-5.0469 15.484c1.6445 0 2.8945-0.59766 3.75-1.7969 0.86328-1.1953 1.2969-2.9297 1.2969-5.2031 0-2.2812-0.43359-4.0195-1.2969-5.2188-0.85547-1.1953-2.1055-1.7969-3.75-1.7969-1.625 0-2.8711 0.60156-3.7344 1.7969-0.85547 1.1992-1.2812 2.9375-1.2812 5.2188 0 2.2734 0.42578 4.0078 1.2812 5.2031 0.86328 1.1992 2.1094 1.7969 3.7344 1.7969z"/>
  </symbol>
  <symbol id="h" overflow="visible">
   <path d="m16.406-4.9375c1.6328 0 2.8828-0.59766 3.75-1.7969 0.86328-1.1953 1.2969-2.9297 1.2969-5.2031 0-2.2812-0.43359-4.0195-1.2969-5.2188-0.86719-1.1953-2.1172-1.7969-3.75-1.7969-1.6367 0-2.8906 0.60547-3.7656 1.8125-0.875 1.1992-1.3125 2.9336-1.3125 5.2031 0 2.2617 0.4375 3.9961 1.3125 5.2031 0.875 1.1992 2.1289 1.7969 3.7656 1.7969zm-5.0781-15.484c1.0508-1.3945 2.2188-2.4219 3.5-3.0781 1.2812-0.66406 2.7539-1 4.4219-1 2.9453 0 5.3672 1.1719 7.2656 3.5156 1.8945 2.3438 2.8438 5.3594 2.8438 9.0469s-0.94922 6.7031-2.8438 9.0469c-1.8984 2.3438-4.3203 3.5156-7.2656 3.5156-1.668 0-3.1406-0.33594-4.4219-1s-2.4492-1.6914-3.5-3.0781v3.4531h-7.6562v-33.234h7.6562z"/>
  </symbol>
  <symbol id="g" overflow="visible">
   <path d="m0.53125-23.922h7.6562l6.4219 16.234 5.4688-16.234h7.6562l-10.062 26.188c-1.0117 2.6641-2.1953 4.5234-3.5469 5.5781-1.3438 1.0625-3.1211 1.5938-5.3281 1.5938h-4.4219v-5.0156h2.3906c1.3008 0 2.2422-0.21094 2.8281-0.625 0.59375-0.40625 1.0547-1.1484 1.3906-2.2188l0.20312-0.65625z"/>
  </symbol>
  <symbol id="f" overflow="visible">
   <path d="m3.6719-33.234h7.6562v33.234h-7.6562z"/>
  </symbol>
  <symbol id="e" overflow="visible">
   <path d="m22.359-23.172v5.7969c-1.6367-0.67578-3.2148-1.1875-4.7344-1.5312-1.5234-0.34375-2.9609-0.51562-4.3125-0.51562-1.4609 0-2.543 0.18359-3.25 0.54688-0.69922 0.36719-1.0469 0.92188-1.0469 1.6719 0 0.61719 0.26562 1.0898 0.79688 1.4219 0.53125 0.32422 1.4883 0.5625 2.875 0.71875l1.3438 0.1875c3.9141 0.5 6.5508 1.3242 7.9062 2.4688 1.3516 1.1367 2.0312 2.9219 2.0312 5.3594 0 2.5547-0.94531 4.4688-2.8281 5.75-1.875 1.2812-4.6797 1.9219-8.4062 1.9219-1.5859 0-3.2188-0.125-4.9062-0.375s-3.4219-0.625-5.2031-1.125v-5.8125c1.5195 0.74219 3.082 1.2969 4.6875 1.6719 1.6016 0.36719 3.2344 0.54688 4.8906 0.54688 1.4883 0 2.6094-0.20312 3.3594-0.60938 0.75781-0.41406 1.1406-1.0312 1.1406-1.8438 0-0.6875-0.26172-1.1953-0.78125-1.5312-0.52344-0.33203-1.5586-0.59375-3.1094-0.78125l-1.3438-0.17188c-3.4062-0.42578-5.793-1.2109-7.1562-2.3594-1.3672-1.1562-2.0469-2.9102-2.0469-5.2656 0-2.5312 0.86719-4.4062 2.6094-5.625 1.7383-1.2266 4.3984-1.8438 7.9844-1.8438 1.4062 0 2.8828 0.10938 4.4375 0.32812 1.5508 0.21094 3.2383 0.54297 5.0625 1z"/>
  </symbol>
  <symbol id="k" overflow="visible">
   <path d="m11.328-3.4531v12.547h-7.6562v-33.016h7.6562v3.5c1.0508-1.3945 2.2188-2.4219 3.5-3.0781 1.2812-0.66406 2.7539-1 4.4219-1 2.9453 0 5.3672 1.1719 7.2656 3.5156 1.8945 2.3438 2.8438 5.3594 2.8438 9.0469s-0.94922 6.7031-2.8438 9.0469c-1.8984 2.3438-4.3203 3.5156-7.2656 3.5156-1.668 0-3.1406-0.33594-4.4219-1s-2.4492-1.6914-3.5-3.0781zm5.0781-15.5c-1.6367 0-2.8906 0.60547-3.7656 1.8125-0.875 1.1992-1.3125 2.9336-1.3125 5.2031 0 2.2617 0.4375 3.9961 1.3125 5.2031 0.875 1.1992 2.1289 1.7969 3.7656 1.7969 1.6328 0 2.8828-0.59766 3.75-1.7969 0.86328-1.1953 1.2969-2.9297 1.2969-5.2031 0-2.2812-0.43359-4.0195-1.2969-5.2188-0.86719-1.1953-2.1172-1.7969-3.75-1.7969z"/>
  </symbol>
  <symbol id="j" overflow="visible">
   <path d="m3.6719-33.234h7.6562v18.094l8.7969-8.7812h8.8906l-11.688 10.969 12.594 12.953h-9.2656l-9.3281-9.9688v9.9688h-7.6562z"/>
  </symbol>
 </defs>
 <g>
  <path d="m100.62 476.91c-2.3203 0-4.5469-0.92188-6.1914-2.5625-1.6406-1.6406-2.5625-3.8672-2.5586-6.1875 0.023437-20.883 8.3281-40.906 23.094-55.672 14.77-14.766 34.789-23.074 55.672-23.098 4.832 0 8.75 3.918 8.75 8.75s-3.918 8.75-8.75 8.75c-16.242 0.019531-31.816 6.4766-43.305 17.965-11.484 11.484-17.945 27.059-17.961 43.305 0 2.3203-0.92188 4.5469-2.5625 6.1875-1.6406 1.6406-3.8672 2.5625-6.1875 2.5625z"/>
  <path d="m439.03 410.9c-1 0-1.9922-0.16797-2.9336-0.50391-6.5781-2.3281-13.504-3.5156-20.48-3.5039-4.832 0-8.75-3.9141-8.75-8.75 0-4.832 3.918-8.75 8.75-8.75 8.9727-0.007813 17.883 1.5156 26.344 4.5117 4.0117 1.4297 6.418 5.5352 5.6914 9.7344-0.72266 4.1992-4.3633 7.2656-8.625 7.2617z"/>
  <path d="m231.87 406.89h-61.234c-4.832 0-8.75-3.9141-8.75-8.75 0-4.832 3.918-8.75 8.75-8.75h61.234c4.832 0 8.75 3.918 8.75 8.75 0 4.8359-3.918 8.75-8.75 8.75z"/>
  <path d="m415.62 406.89h-61.25c-4.832 0-8.75-3.9141-8.75-8.75 0-4.832 3.918-8.75 8.75-8.75h61.25c4.832 0 8.75 3.918 8.75 8.75 0 4.8359-3.918 8.75-8.75 8.75z"/>
  <path d="m100.63 546.88c-4.832 0-8.75-3.918-8.75-8.75l-0.015624-69.965c0-4.832 3.918-8.75 8.75-8.75 4.832 0 8.75 3.918 8.75 8.75l0.015624 69.965c0 4.832-3.918 8.75-8.75 8.75z"/>
  <path d="m485.62 546.88c-2.3203 0-4.5469-0.92188-6.1914-2.5625-1.6406-1.6406-2.5625-3.8672-2.5586-6.1875v-4.0234c0-4.8359 3.918-8.75 8.75-8.75 4.832 0 8.75 3.9141 8.75 8.75v4.0234c0 2.3203-0.92188 4.5469-2.5625 6.1875-1.6406 1.6406-3.8672 2.5625-6.1875 2.5625z"/>
  <path d="m231.87 406.89c-2.3203 0.003906-4.5469-0.91797-6.1914-2.5586-1.6406-1.6406-2.5625-3.8672-2.5586-6.1914v-50.141c0-4.832 3.918-8.75 8.75-8.75 4.832 0 8.75 3.918 8.75 8.75v50.141c0 2.3242-0.92188 4.5508-2.5625 6.1914-1.6406 1.6406-3.8672 2.5625-6.1875 2.5586z"/>
  <path d="m354.37 406.89c-2.3203 0.003906-4.5469-0.91797-6.1914-2.5586-1.6406-1.6406-2.5625-3.8672-2.5586-6.1914v-50.141c0-4.832 3.918-8.75 8.75-8.75 4.832 0 8.75 3.918 8.75 8.75v50.141c0 2.3242-0.92188 4.5508-2.5625 6.1914-1.6406 1.6406-3.8672 2.5625-6.1875 2.5586z"/>
  <path d="m293.12 371.89c-37.117-0.039063-72.703-14.805-98.949-41.051-26.246-26.246-41.008-61.828-41.051-98.949 0-4.832 3.918-8.75 8.75-8.75 4.832 0 8.75 3.918 8.75 8.75 0 43.766 23.348 84.207 61.25 106.09 37.902 21.883 84.598 21.883 122.5 0 37.902-21.883 61.25-62.324 61.25-106.09 0-4.832 3.918-8.75 8.75-8.75 4.832 0 8.75 3.918 8.75 8.75-0.042969 37.121-14.809 72.703-41.055 98.949-26.242 26.246-61.828 41.012-98.945 41.051z"/>
  <path d="m424.37 170.62c-2.3203 0-4.5469-0.92188-6.1914-2.5625-1.6406-1.6406-2.5625-3.8672-2.5586-6.1875 0-43.766-23.348-84.207-61.25-106.09-37.902-21.879-84.598-21.879-122.5 0-37.902 21.883-61.25 62.324-61.25 106.09 0 4.832-3.918 8.75-8.75 8.75-4.832 0-8.75-3.918-8.75-8.75 0-50.016 26.684-96.234 70-121.24 43.316-25.012 96.684-25.012 140 0 43.316 25.008 70 71.227 70 121.24 0 2.3203-0.92188 4.5469-2.5625 6.1875-1.6406 1.6406-3.8672 2.5625-6.1875 2.5625z"/>
  <path d="m161.87 240.64c-2.3203 0.003906-4.5469-0.91797-6.1914-2.5586-1.6406-1.6406-2.5625-3.8672-2.5586-6.1914v-35.016c0-4.832 3.918-8.75 8.75-8.75 4.832 0 8.75 3.918 8.75 8.75v35.016c0 2.3242-0.92188 4.5508-2.5625 6.1914-1.6406 1.6406-3.8672 2.5625-6.1875 2.5586z"/>
  <path d="m424.37 240.64c-2.3203 0.003906-4.5469-0.91797-6.1914-2.5586-1.6406-1.6406-2.5625-3.8672-2.5586-6.1914v-35.016c0-4.832 3.918-8.75 8.75-8.75 4.832 0 8.75 3.918 8.75 8.75v35.016c0 2.3242-0.92188 4.5508-2.5625 6.1914-1.6406 1.6406-3.8672 2.5625-6.1875 2.5586z"/>
  <path d="m441.87 205.62h-297.5c-4.832 0-8.75-3.918-8.75-8.75s3.918-8.75 8.75-8.75h297.5c4.832 0 8.75 3.918 8.75 8.75s-3.918 8.75-8.75 8.75z"/>
  <path d="m441.87 205.62c-2.4727 0.003906-4.8281-1.0391-6.4883-2.8711-0.23047-0.23828-31.973-32.129-142.26-32.129-110.29 0-142.04 31.891-142.34 32.215-3.3125 3.4727-8.7969 3.6523-12.328 0.40234-3.5156-3.2383-3.7656-8.6992-0.56641-12.246 1.4023-1.5469 35.703-37.871 155.24-37.871 119.54 0 153.84 36.324 155.23 37.871 2.3281 2.5664 2.9219 6.2617 1.5195 9.4258-1.4062 3.1641-4.543 5.2031-8.0039 5.2031z"/>
  <path d="m424.37 193.9c-2.3203 0-4.5469-0.92188-6.1914-2.5625-1.6406-1.6406-2.5625-3.8672-2.5586-6.1875v-23.277c0-4.832 3.918-8.75 8.75-8.75 4.832 0 8.75 3.918 8.75 8.75v23.277c0 2.3203-0.92188 4.5469-2.5625 6.1875-1.6406 1.6406-3.8672 2.5625-6.1875 2.5625z"/>
  <path d="m161.87 193.9c-2.3203 0-4.5469-0.92188-6.1914-2.5625-1.6406-1.6406-2.5625-3.8672-2.5586-6.1875v-23.277c0-4.832 3.918-8.75 8.75-8.75 4.832 0 8.75 3.918 8.75 8.75v23.277c0 2.3203-0.92188 4.5469-2.5625 6.1875-1.6406 1.6406-3.8672 2.5625-6.1875 2.5625z"/>
  <path d="m293.12 135.62c-9.2852 0-18.188-3.6875-24.75-10.25-6.5625-6.5664-10.25-15.469-10.25-24.75s3.6875-18.184 10.25-24.75c6.5625-6.5625 15.465-10.25 24.75-10.25 9.2812 0 18.184 3.6875 24.746 10.25 6.5664 6.5664 10.254 15.469 10.254 24.75-0.011719 9.2812-3.6992 18.176-10.262 24.738s-15.461 10.254-24.738 10.262zm0-52.5c-4.6406 0-9.0938 1.8438-12.375 5.125s-5.125 7.7344-5.125 12.375 1.8438 9.0938 5.125 12.375 7.7344 5.125 12.375 5.125c4.6406 0 9.0898-1.8438 12.375-5.125 3.2812-3.2812 5.125-7.7344 5.125-12.375-0.007813-4.6406-1.8516-9.0859-5.1328-12.367s-7.7305-5.125-12.367-5.1328z"/>
  <path d="m293.12 39.375c-2.3203 0-4.5469-0.92188-6.1914-2.5625-1.6406-1.6406-2.5625-3.8672-2.5586-6.1875v-8.75c0-4.832 3.918-8.75 8.75-8.75 4.832 0 8.75 3.918 8.75 8.75v8.75c0 2.3203-0.92188 4.5469-2.5625 6.1875-1.6406 1.6406-3.8672 2.5625-6.1875 2.5625z"/>
  <path d="m293.12 424.39c-46.852 0-66.625-19.242-67.438-20.062-3.4062-3.4023-3.4219-8.918-0.035157-12.34 3.3828-3.4258 8.8984-3.4688 12.34-0.10156 0.39453 0.36719 16.473 15.004 55.133 15.004 38.938 0 54.977-14.859 55.133-15.004 3.4727-3.3125 8.9609-3.2344 12.336 0.17969 3.3633 3.4023 3.3477 8.8789-0.03125 12.262-0.8125 0.82031-20.586 20.062-67.438 20.062z"/>
  <path d="m293.12 546.88c-2.3203 0-4.5469-0.92188-6.1914-2.5625-1.6406-1.6406-2.5625-3.8672-2.5586-6.1875v-174.98c0-4.832 3.918-8.75 8.75-8.75 4.832 0 8.75 3.918 8.75 8.75v174.98c0 2.3203-0.92188 4.5469-2.5625 6.1875-1.6406 1.6406-3.8672 2.5625-6.1875 2.5625z"/>
  <path d="m336.88 546.88c-2.3203 0-4.5469-0.92188-6.1875-2.5625-1.6406-1.6406-2.5625-3.8672-2.5625-6.1875v-61.25c0-2.3203 0.92188-4.5469 2.5625-6.1875 1.6406-1.6406 3.8672-2.5625 6.1875-2.5625h91.508c4.832 0 8.75 3.918 8.75 8.75s-3.918 8.75-8.75 8.75h-82.758v52.5c0.003907 2.3203-0.91797 4.5469-2.5586 6.1875-1.6445 1.6406-3.8711 2.5625-6.1914 2.5625z"/>
  <path d="m441.88 546.88c-2.3203 0-4.5469-0.92188-6.1875-2.5625-1.6406-1.6406-2.5625-3.8672-2.5625-6.1875v-35c0-4.832 3.918-8.75 8.75-8.75 4.832 0 8.75 3.918 8.75 8.75v35c0.003907 2.3203-0.91797 4.5469-2.5586 6.1875-1.6445 1.6406-3.8711 2.5625-6.1914 2.5625z"/>
  <path d="m441.88 520.62h-105c-4.832 0-8.75-3.918-8.75-8.75s3.918-8.75 8.75-8.75h105c4.832 0 8.75 3.918 8.75 8.75s-3.918 8.75-8.75 8.75z"/>
  <path d="m389.38 529.38c-2.3203 0-4.5469-0.92188-6.1875-2.5625-1.6406-1.6406-2.5625-3.8672-2.5625-6.1875v-17.492c0-4.832 3.918-8.75 8.75-8.75 4.832 0 8.75 3.918 8.75 8.75v17.492c0.003907 2.3203-0.91797 4.5469-2.5586 6.1875-1.6445 1.6406-3.8711 2.5625-6.1914 2.5625z"/>
  <path d="m249.38 546.88c-2.3203 0-4.5469-0.92188-6.1875-2.5625-1.6406-1.6406-2.5625-3.8672-2.5625-6.1875v-52.5h-87.5v52.5c0 4.832-3.918 8.75-8.75 8.75-4.832 0-8.75-3.918-8.75-8.75v-61.25c0-2.3203 0.92188-4.5469 2.5625-6.1875 1.6406-1.6406 3.8672-2.5625 6.1875-2.5625h105c2.3203 0 4.5469 0.92188 6.1914 2.5625 1.6406 1.6406 2.5625 3.8672 2.5586 6.1875v61.25c0.003907 2.3203-0.91797 4.5469-2.5586 6.1875-1.6445 1.6406-3.8711 2.5625-6.1914 2.5625z"/>
  <path d="m249.38 520.62h-105c-4.832 0-8.75-3.918-8.75-8.75s3.918-8.75 8.75-8.75h105c4.832 0 8.75 3.918 8.75 8.75s-3.918 8.75-8.75 8.75z"/>
  <path d="m196.88 529.38c-2.3203 0-4.5469-0.92188-6.1875-2.5625-1.6406-1.6406-2.5625-3.8672-2.5625-6.1875v-17.492c0-4.832 3.918-8.75 8.75-8.75 4.832 0 8.75 3.918 8.75 8.75v17.492c0.003907 2.3203-0.91797 4.5469-2.5586 6.1875-1.6445 1.6406-3.8711 2.5625-6.1914 2.5625z"/>
  <path d="m511.88 546.88c-25.527 0-50.008-10.141-68.059-28.191-18.051-18.051-28.191-42.531-28.191-68.059s10.141-50.008 28.191-68.059c18.051-18.051 42.531-28.191 68.059-28.191 25.527 0 50.008 10.141 68.059 28.191 18.051 18.051 28.191 42.531 28.191 68.059-0.027343 25.52-10.18 49.984-28.223 68.027-18.043 18.043-42.508 28.195-68.027 28.223zm0-175c-20.887 0-40.914 8.2969-55.684 23.066-14.77 14.766-23.066 34.797-23.066 55.684s8.2969 40.918 23.066 55.684c14.77 14.77 34.797 23.066 55.684 23.066 20.887 0 40.918-8.2969 55.688-23.066 14.766-14.766 23.062-34.797 23.062-55.684-0.023437-20.879-8.3242-40.895-23.09-55.66-14.762-14.762-34.781-23.066-55.66-23.09z"/>
  <path d="m511.88 511.88c-1.4922 0-2.9609-0.38281-4.2617-1.1094-12.445-6.6836-22.043-17.656-27.012-30.879-4.9688-13.223-4.9688-27.801 0-41.023 4.9688-13.223 14.566-24.195 27.012-30.879 2.6484-1.4844 5.8789-1.4844 8.5273 0 12.445 6.6836 22.043 17.656 27.008 30.879 4.9688 13.223 4.9688 27.801 0 41.023-4.9648 13.223-14.562 24.195-27.008 30.879-1.3047 0.72656-2.7734 1.1094-4.2656 1.1094zm0-85.895c-10.957 7.5859-17.5 20.066-17.5 33.395s6.543 25.809 17.5 33.395c10.961-7.5859 17.5-20.066 17.5-33.395s-6.5391-25.809-17.5-33.395z"/>
  <path d="m534.89 450.62h-46.023c-4.832 0-8.75-3.918-8.75-8.75s3.918-8.75 8.75-8.75h46.023c4.832 0 8.75 3.918 8.75 8.75s-3.918 8.75-8.75 8.75z"/>
  <path d="m517.21 427.79c-3.1289-0.003906-6.0195-1.6797-7.5781-4.3906-1.5586-2.7148-1.5508-6.0547 0.023438-8.7617l12.168-20.91c1.1641-2.0078 3.082-3.4727 5.3281-4.0703 2.2461-0.59766 4.6367-0.27344 6.6445 0.89453 2.0078 1.168 3.4688 3.0898 4.0625 5.3359 0.58984 2.2461 0.26172 4.6367-0.91016 6.6445l-12.168 20.91v-0.003906c-1.5664 2.6992-4.4531 4.3555-7.5703 4.3516z"/>
  <path d="m506.56 427.79c-3.1172 0.003906-6.0039-1.6523-7.5703-4.3516l-12.168-20.91v0.003906c-1.1719-2.0078-1.5-4.3984-0.90625-6.6445 0.58984-2.2461 2.0508-4.168 4.0586-5.3359 2.0078-1.168 4.3984-1.4922 6.6445-0.89453 2.2461 0.59766 4.1641 2.0625 5.3281 4.0703l12.168 20.91c1.5742 2.707 1.582 6.0469 0.023438 8.7617-1.5586 2.7109-4.4453 4.3867-7.5781 4.3906z"/>
  <path d="m564.38 468.12h-26.25c-4.832 0-8.75-3.918-8.75-8.75s3.918-8.75 8.75-8.75h26.25c4.832 0 8.75 3.918 8.75 8.75s-3.918 8.75-8.75 8.75z"/>
  <path d="m485.63 468.12h-26.25c-4.832 0-8.75-3.918-8.75-8.75s3.918-8.75 8.75-8.75h26.25c4.832 0 8.75 3.918 8.75 8.75s-3.918 8.75-8.75 8.75z"/>
  <path d="m454.54 525.46c-3.5391 0-6.7305-2.1328-8.082-5.4023-1.3555-3.2695-0.60547-7.0312 1.8945-9.5352l123.43-123.42c3.4141-3.418 8.9531-3.418 12.371 0 3.418 3.418 3.418 8.957 0 12.375l-123.43 123.42c-1.6406 1.6445-3.8672 2.5664-6.1875 2.5625z"/>
  <path d="m555.63 511.88c-2.3203 0.003906-4.5469-0.92188-6.1836-2.5625l-22.406-22.406c-3.418-3.418-3.418-8.957 0-12.371 3.4141-3.418 8.957-3.418 12.371 0l22.406 22.402c2.5 2.5039 3.25 6.2656 1.8945 9.5352-1.3516 3.2695-4.543 5.4023-8.082 5.4023z"/>
  <path d="m490.54 446.78c-2.3203 0-4.5469-0.92188-6.1875-2.5664l-22.402-22.402c-1.668-1.6367-2.6094-3.8711-2.6211-6.2031-0.011719-2.3359 0.91406-4.5781 2.5625-6.2266 1.6523-1.6523 3.8945-2.5742 6.2266-2.5625 2.3359 0.011719 4.5664 0.95313 6.2031 2.6172l22.406 22.406c2.5 2.5039 3.25 6.2656 1.8945 9.5352-1.3555 3.2695-4.543 5.3984-8.082 5.4023z"/>
  <use x="70" y="691.25" xlink:href="#l"/>
  <use x="102.109375" y="691.25" xlink:href="#d"/>
  <use x="123.683594" y="691.25" xlink:href="#c"/>
  <use x="153.355469" y="691.25" xlink:href="#a"/>
  <use x="182.878906" y="691.25" xlink:href="#b"/>
  <use x="203.792969" y="691.25" xlink:href="#c"/>
  <use x="233.464844" y="691.25" xlink:href="#i"/>
  <use x="280.011719" y="691.25" xlink:href="#h"/>
  <use x="311.328125" y="691.25" xlink:href="#g"/>
  <use x="355.078125" y="691.25" xlink:href="#f"/>
  <use x="370.078125" y="691.25" xlink:href="#a"/>
  <use x="399.597656" y="691.25" xlink:href="#e"/>
  <use x="425.640625" y="691.25" xlink:href="#b"/>
  <use x="446.554688" y="691.25" xlink:href="#e"/>
  <use x="472.59375" y="691.25" xlink:href="#k"/>
  <use x="503.910156" y="691.25" xlink:href="#a"/>
  <use x="533.433594" y="691.25" xlink:href="#d"/>
  <use x="555.007812" y="691.25" xlink:href="#j"/>
 </g>
</svg>
